<svg xmlns="http://www.w3.org/2000/svg" version="1.1" xmlns:xlink="http://www.w3.org/1999/xlink" xmlns:svgjs="http://svgjs.dev/svgjs" width="2000" height="1500" viewBox="0 0 2000 1500"><rect width="2000" height="1500" fill="#2c3030"></rect><g transform="matrix(0.4444444444444444,0,0,0.4444444444444444,555.5557073912273,250)"><svg viewBox="0 0 320 360" data-background-color="#2c3030" preserveAspectRatio="xMidYMid meet" height="2250" width="2000" xmlns="http://www.w3.org/2000/svg" xmlns:xlink="http://www.w3.org/1999/xlink"><g id="tight-bounds" transform="matrix(1,0,0,1,0.00005466084189720277,0)"><svg viewBox="0 0 320 360" height="360" width="320"><g><svg></svg></g><g><svg viewBox="0 0 320 360" height="360" width="320"><g><path transform="translate(-119.39272,-98.31927) scale(5.58313,5.58313)" d="M36.7 23.5c0-0.2 0.1-0.4 0.3-0.4 0.2 0 0.4 0.1 0.4 0.4 0.1 0 0.3 0 0.4-0.1 0.4 0 0.8-0.1 1.1 0 0.3 0.1 0.5 0.1 0.8 0.2 0.3 0.1 0.5 0 0.7-0.1 0.4-0.1 0.7-0.3 1.1-0.4 0.2-0.1 0.3-0.1 0.5-0.1 0.2-0.1 0.4-0.1 0.7-0.2 0.5-0.1 1-0.2 1.4-0.4 0.4-0.2 0.8-0.2 1.2-0.3 0.2 0 0.3-0.1 0.5-0.2 0.1 0 0.1-0.1 0.2-0.2 0.2-0.1 0.3-0.2 0.5-0.1 0.1 0.1 0.3 0.1 0.4 0h0.1c0.6 0 1.2-0.1 1.9 0 0.1 0 0.2 0 0.2 0 0.3-0.2 0.7-0.2 1.1-0.2 0.1 0 0.3 0 0.4 0h0.1c0.4 0 0.8 0 1.1 0.1 0.3 0 0.5 0.1 0.8 0.2 0.3 0 0.5 0 0.8 0.1 0.2 0 0.4 0 0.6 0 0.1 0 0.2 0 0.2 0 0.4 0.1 0.8 0.1 1.2 0.1 0.3 0.1 0.6 0.2 1 0.2 0.1 0 0.2 0 0.3 0 0.1 0 0.2 0.1 0.3 0.1l0.1 0.1c0.4 0 0.7 0.2 1.1 0.2 0.1 0 0.3 0 0.4 0.1 0.3 0.2 0.7 0.3 1.1 0.3 0.2 0 0.3 0.1 0.4 0.2 0.3 0.1 0.5 0.2 0.8 0.3 0.2 0.1 0.4 0 0.6 0.1 0.3 0.1 0.7 0.2 1 0.5 0.2 0.2 0.4 0.2 0.7 0.4 0.1 0 0.2 0.1 0.3 0.2 0.3 0.2 0.6 0.4 0.9 0.5 0.1 0 0.2 0.1 0.3 0.1 0.3 0.2 0.6 0.5 1 0.7 0.2 0.1 0.3 0.2 0.5 0.3h0.1c0.3 0.3 0.7 0.5 1 0.8 0.3 0.3 0.5 0.5 0.9 0.7 0 0 0 0 0 0.1 0.1 0.2 0.2 0.3 0.4 0.4 0.2 0.1 0.3 0.2 0.4 0.3 0.3 0.2 0.6 0.4 0.8 0.6 0.1 0.1 0.2 0.2 0.4 0.4 0.1 0.1 0.2 0.2 0.3 0.2 0.4 0.1 0.6 0.4 0.9 0.7 0.2 0.2 0.5 0.5 0.7 0.7 0.1 0.1 0.2 0.3 0.3 0.5 0.2 0.6 0.5 1.2 0.8 1.7 0 0 0 0.1 0.1 0.2v0.1c0.2 0.2 0.3 0.5 0.5 0.7 0.1 0.1 0.1 0.2 0.2 0.3 0.2 0.3 0.3 0.7 0.5 1 0.3 0.5 0.5 1 0.7 1.5v0.1c0.1 0.2 0.2 0.4 0.3 0.7 0 0.2 0.2 0.4 0.3 0.7 0.1 0.5 0.4 1 0.5 1.6 0 0.1 0.1 0.2 0.1 0.4 0.1 0.3 0.2 0.6 0.3 0.9 0 0.1 0.1 0.2 0.2 0.3 0.2 0.2 0.2 0.4 0.2 0.6-0.1 0.4 0 0.8 0.1 1.2 0 0.1 0 0.2 0 0.4 0.1 0.4 0.2 0.9 0.2 1.3 0 0.1 0 0.3 0 0.4 0 0.3 0.1 0.6 0.3 0.9 0 0.1 0.1 0.1 0.1 0.1 0.1 0.1 0.2 0.3 0.3 0.4 0.1 0.1 0.1 0.1 0.2 0.2 0.2 0.2 0.3 0.4 0.3 0.7 0 0.1-0.1 0.3-0.1 0.4 0 0.1 0 0.3 0.1 0.4 0.1 0.1 0.1 0.2 0.1 0.3 0 0.1-0.1 0.2-0.2 0.2v0c-0.1 0.3-0.5 0.4-0.6 0.7-0.1 0.4-0.2 0.8-0.3 1.2-0.1 0.3-0.1 0.5-0.1 0.8 0 0.3-0.1 0.5-0.1 0.8-0.1 0.4-0.2 0.8-0.3 1.2 0 0.2-0.1 0.4-0.1 0.6 0.1 0.1 0.2 0.2 0.3 0.2 0.2 0.2 0.4 0.4 0.6 0.6 0.1 0.1 0.1 0.2 0 0.2-0.1 0.1-0.2 0.1-0.3 0.1-0.1-0.1-0.3-0.2-0.4-0.2-0.1-0.1-0.3-0.2-0.5-0.1 0 0.2-0.1 0.4-0.1 0.5-0.1 0.2-0.2 0.5-0.2 0.7-0.1 0.4-0.3 0.7-0.4 1.1-0.2 0.5-0.4 0.9-0.6 1.3-0.1 0.2-0.2 0.4-0.3 0.6v0c0 0.3-0.3 0.6-0.4 0.9-0.2 0.4-0.4 0.8-0.6 1.3-0.1 0.2-0.2 0.4-0.3 0.5-0.2 0.5-0.4 0.9-0.7 1.3-0.2 0.3-0.4 0.5-0.6 0.6-0.2 0.2-0.4 0.4-0.6 0.6-0.1 0.1-0.2 0.2-0.3 0.3-0.1 0.1-0.1 0.1-0.2 0.2-0.2 0.3-0.5 0.5-0.7 0.8-0.2 0.2-0.3 0.4-0.6 0.6-0.2 0.2-0.4 0.5-0.7 0.6-0.1 0.1-0.2 0.3-0.3 0.4-0.1 0.1-0.2 0.3-0.3 0.4 0 0.2 0.1 0.4 0.1 0.5 0 0.3-0.3 0.4-0.5 0.2-0.3-0.2-0.3-0.2-0.6 0-0.3 0.2-0.6 0.5-1 0.6-0.1 0-0.1 0.1-0.2 0.1-0.2 0.1-0.3 0.3-0.5 0.4-0.2 0.2-0.5 0.3-0.7 0.5-0.1 0.1-0.2 0.1-0.3 0.2-0.3 0.2-0.6 0.3-0.9 0.6-0.1 0.1-0.2 0.1-0.3 0.2 0 0.1 0 0.1 0 0.2 0 0.2-0.2 0.4-0.5 0.3-0.3-0.1-0.5 0-0.8 0-0.3 0.1-0.6 0.3-0.9 0.4-0.1 0-0.2 0.1-0.3 0.2-0.3 0.2-0.6 0.3-0.9 0.4-0.2 0-0.4 0.2-0.6 0.2-0.1 0-0.2 0.1-0.3 0.1h-0.1c-0.4 0.3-0.8 0.5-1.2 0.8-0.1 0-0.1 0.1-0.2 0.2-0.1 0.2-0.2 0.3-0.4 0.3-0.5 0-0.7 0.4-0.6 0.8 0 0.1 0.1 0.2 0.1 0.3 0.1 0.2 0 0.4-0.1 0.5-0.1 0.1-0.4 0.1-0.5-0.1-0.2-0.2-0.3-0.4-0.4-0.7-0.1-0.2-0.3-0.4-0.5-0.5-0.2-0.1-0.4-0.1-0.6 0-0.1 0-0.1 0.1-0.2 0.1-0.2 0.2-0.5 0.3-0.8 0.2-0.1 0-0.3 0-0.3 0.1-0.1 0.1-0.1 0.3 0 0.4 0.2 0.2 0.1 0.4 0.1 0.7 0 0.4-0.3 0.6-0.7 0.4-0.1-0.1-0.2-0.1-0.3-0.2-0.1 0-0.1-0.1-0.1-0.2-0.1-0.1-0.1-0.3-0.2-0.5-0.2 0.1-0.4 0.1-0.6 0.2-0.1 0-0.2 0.1-0.3 0.1-0.3 0-0.4 0-0.5-0.3-0.1-0.3-0.3-0.3-0.5-0.4-0.4-0.1-0.9-0.1-1.3-0.3h-0.1c-0.4-0.3-0.8-0.3-1.3-0.3-0.3 0-0.6 0.1-0.9 0.1-0.3 0-0.5 0.1-0.7 0.3-0.1 0.1-0.2 0.2-0.3 0.2-0.1-0.1-0.1-0.2-0.2-0.3v-0.1c0-0.1-0.1-0.2-0.2-0.1-0.2 0.1-0.4-0.1-0.6-0.2-0.1-0.1-0.3-0.3-0.3-0.5-0.1-0.1-0.2-0.2-0.3-0.2-0.2 0-0.5-0.1-0.7-0.1-0.1 0-0.2 0-0.2-0.1-0.1-0.1-0.2-0.1-0.4-0.1-0.1 0-0.1-0.1-0.2-0.1 0.2 0.2 0.3 0.4 0.4 0.6 0 0.1 0.1 0.1 0.1 0.2 0.1 0.2 0 0.3-0.3 0.3-0.2 0-0.2 0-0.3 0.1 0 0.2 0 0.3 0 0.5 0 0.1 0 0.2-0.2 0.3 0 0-0.1 0-0.1 0.1-0.1 0.1-0.1 0.2 0 0.3 0.3 0.2 0.5 0.3 0.8 0.4 0.3 0 0.3 0.2 0.4 0.4 0.1 0.2 0 0.3-0.1 0.5-0.2 0.2-0.4 0.4-0.6 0.6-0.3 0.1-0.5 0.4-0.8 0.4-0.2 0-0.4-0.1-0.5-0.3-0.1-0.5-0.1-0.9 0.1-1.4 0-0.1 0.1-0.2 0-0.3-0.9 0-0.9-0.2-0.9-0.3 0-0.2 0.1-0.3 0.1-0.5 0.1-0.2 0-0.3-0.3-0.4-0.1 0-0.2 0-0.3 0-0.1 0-0.1-0.1-0.3-0.1 0.2-0.1 0.3-0.1 0.5-0.2-0.1-0.4-0.2-0.7-0.5-0.9-0.1-0.1-0.2-0.2-0.2-0.4 0-0.3-0.2-0.5-0.3-0.7-0.2-0.3-0.6-0.4-0.9-0.4-0.3-0.1-0.5-0.1-0.8-0.2-0.3-0.1-0.6-0.4-0.9-0.5-0.1-0.1-0.2-0.2-0.4-0.3-0.4-0.2-0.7-0.5-1-0.8-0.2-0.1-0.3-0.3-0.5-0.4-0.2-0.2-0.3-0.4-0.5-0.5-0.2-0.2-0.4-0.4-0.7-0.6-0.3-0.2-0.5-0.5-0.8-0.8-0.2-0.3-0.5-0.5-0.8-0.7-0.1 0-0.2 0-0.3 0-0.1 0-0.2 0.1-0.3 0.1-0.3 0.1-0.5 0.3-0.8 0.4 0.1-0.1 0.1-0.1 0-0.3-0.1-0.1-0.2-0.2-0.3-0.2-0.2 0-0.4 0-0.6 0-0.4 0-0.8 0.1-1.2 0.1-0.3 0-0.7 0.1-1 0.2 0.1 0.2 0.1 0.3 0.2 0.5-0.2 0.1-0.4 0.1-0.6 0.1-0.1 0-0.3 0.1-0.4 0.2-0.1 0-0.1 0.1-0.2 0-0.2-0.1-0.4 0-0.6 0.1h-0.1c0 0 0-0.1 0.1-0.1 0.1-0.1 0.2-0.2 0.3-0.3 0.1-0.1 0.2-0.1 0.4-0.2-0.1-0.1-0.1-0.2-0.1-0.2-0.1-0.1-0.2-0.1-0.3 0-0.1 0.1-0.2 0.2-0.3 0.3-0.1 0.1-0.2 0.1-0.3 0-0.1-0.1-0.1-0.2 0-0.3 0-0.1 0.1-0.2 0.2-0.3 0.1-0.1 0.1-0.2 0.2-0.3-0.2-0.2-0.3-0.4-0.5-0.5-0.3-0.2-0.6-0.5-0.8-0.8-0.2-0.4-0.5-0.7-0.9-0.9-0.1-0.1-0.2-0.2-0.3-0.3-0.1-0.1-0.1-0.1-0.2-0.2-0.3 0.1-0.5 0.3-0.8 0.4-0.1 0-0.1 0.1-0.2 0.2-0.1 0.2-0.3 0.2-0.5 0.2-0.1 0-0.2-0.1-0.1-0.2 0.1-0.2 0.2-0.4 0.5-0.3 0 0 0.1 0 0.1-0.1 0.2-0.2 0.4-0.5 0.7-0.7-0.1-0.3-0.3-0.5-0.4-0.7-0.1-0.1-0.1-0.2-0.1-0.4 0-0.1 0-0.1-0.1-0.2 0 0-0.1 0-0.2 0.1-0.1 0.1-0.3 0.2-0.5 0 0-0.1 0-0.2 0.1-0.3l0.1-0.1c0.3-0.1 0.3-0.4 0.3-0.7v-0.1c-0.1-0.2-0.1-0.3 0.1-0.5 0.3-0.2 0.6-0.6 0.7-0.9 0.1-0.2 0.3-0.3 0.5-0.5 0.2-0.2 0.4-0.4 0.5-0.7h0.1c0.4 0.1 0.5-0.2 0.7-0.5 0-0.1 0-0.2 0.1-0.2 0.2-0.2 0.2-0.4 0.1-0.7 0-0.1-0.1-0.3-0.1-0.4 0-0.1 0-0.1-0.1-0.2-0.3-0.2-0.3-0.4 0-0.6 0.2-0.1 0.2-0.3 0.3-0.4 0.1-0.2 0.1-0.4 0.1-0.7-0.1-0.3-0.1-0.7-0.2-1-0.1-0.4-0.2-0.9-0.3-1.3 0-0.1 0-0.1 0-0.2 0-0.3 0-0.5-0.1-0.8-0.1-0.1-0.1-0.3-0.1-0.4-0.1-0.3-0.2-0.5-0.5-0.6-0.3-0.2-0.7-0.3-1-0.5-0.1-0.1-0.2 0-0.3 0.1-0.1 0.2-0.3 0.4-0.4 0.6-0.1 0.1-0.2 0.3-0.3 0.5-0.2 0.2-0.6 0.4-0.9 0.1-0.1-0.2-0.2-0.3 0-0.5 0.2-0.3 0.4-0.6 0.7-0.8 0.1-0.1 0.2-0.3 0.3-0.4 0.1-0.2 0.1-0.4 0.1-0.6-0.1-0.4-0.2-0.8-0.2-1.3 0-0.5 0-0.9 0.1-1.4 0.1-0.2 0.1-0.5 0.2-0.7 0-0.1 0.1-0.3 0.2-0.4 0.2-0.2 0.4-0.4 0.5-0.7 0.1-0.3 0.3-0.6 0.3-0.9 0-0.1 0.1-0.2 0.1-0.3 0-0.1 0.1-0.3 0.1-0.4-0.1-0.3 0-0.5 0.1-0.7 0.1-0.2 0.2-0.5 0.3-0.7 0.2-0.4 0.2-0.9 0.6-1.3 0.1-0.2 0.2-0.4 0.3-0.6 0.1-0.4 0.3-0.7 0.5-1 0.1-0.1 0.1-0.1 0.1-0.2 0.1-0.3 0.3-0.6 0.5-0.9 0.2-0.3 0.2-0.6 0.3-0.9 0-0.1 0-0.2 0.1-0.3 0.3-0.3 0.2-0.7 0.1-1.1-0.2-0.5-0.3-1-0.2-1.5 0-0.1 0-0.2 0.1-0.2 0.1-0.2 0.1-0.3 0.2-0.5v-0.1c0.2-0.2 0.4-0.5 0.7-0.6 0.4-0.2 0.8-0.3 1.3-0.4 0.4 0 0.8-0.2 1.1-0.6 0-0.1 0.1-0.1 0.2-0.2l0.1-0.1c0.1-0.2 0.2-0.3 0.3-0.4 0.2-0.2 0.4-0.5 0.6-0.7 0.2-0.2 0.4-0.5 0.7-0.8l0.1-0.1c0.2-0.2 0.4-0.4 0.6-0.5 0.2-0.2 0.4-0.4 0.6-0.6 0.2-0.2 0.3-0.4 0.5-0.6 0.2-0.1 0.4-0.3 0.6-0.5 0.2-0.2 0.4-0.4 0.5-0.5 0.2-0.2 0.5-0.4 0.7-0.5 0.2-0.1 0.4-0.2 0.5-0.5 0.1-0.3 0.2-0.5 0.3-0.8 0-0.2 0.1-0.4 0.2-0.6 0.1 0 0.2 0 0.4-0.1-0.1-0.1-0.2-0.1-0.2-0.2 0-0.1 0.1-0.2 0.1-0.2 0-0.1 0.1-0.2 0.1-0.3 0 0 0.1 0 0.1-0.1 0 0 0.1 0 0.1-0.1-0.2 0.1-0.3 0-0.4-0.1 0.1 0.1 0.2 0.1 0.4 0.2 0 0 0.1 0 0.1-0.1 0-0.1 0-0.2 0-0.2 0 0-0.1 0-0.2 0-0.1 0-0.2 0.1-0.3 0.1zM54 70.5c0-0.1-0.1-0.1-0.1-0.2-0.1-0.2 0-0.3 0.1-0.4 0.1-0.1 0.2-0.1 0.4-0.1 0.2 0.1 0.3 0.2 0.3 0.4 0 0.1 0 0.3 0 0.4 0.1 0.4 0.1 0.4 0.5 0.4 0.2 0 0.4 0 0.6 0 0.4-0.1 0.8-0.3 1.2-0.4 0.4-0.1 0.8-0.2 1.2-0.3 0.1 0 0.2 0 0.4 0 0.4 0.1 0.7 0 1-0.2 0.1-0.1 0.3-0.1 0.4-0.2 0.2-0.1 0.4-0.1 0.6-0.2 0.5-0.3 1-0.5 1.4-0.8 0.3-0.2 0.6-0.4 0.9-0.6 0.3-0.2 0.6-0.4 0.9-0.6 0.2-0.1 0.5-0.3 0.7-0.5 0.4-0.3 0.7-0.6 1.1-0.8 0.2-0.1 0.3-0.2 0.4-0.3 0.2-0.1 0.3-0.3 0.5-0.4 0.1-0.1 0.2-0.2 0.4-0.3 0.1-0.1 0.1-0.1 0.1-0.2 0.3-0.2 0.6-0.6 0.8-0.9 0.2-0.2 0.4-0.4 0.6-0.7 0.3-0.3 0.5-0.7 0.8-1.1 0.2-0.2 0.4-0.5 0.5-0.7 0.2-0.4 0.4-0.8 0.7-1.1v-0.1c0.2-0.4 0.4-0.8 0.6-1.2 0.3-0.5 0.5-1.1 0.8-1.6 0.1-0.2 0.2-0.4 0.2-0.6 0.2-0.4 0.3-0.8 0.4-1.2 0-0.1 0-0.1 0.1-0.2 0.3-0.6 0.5-1.2 0.6-1.9 0.1-0.4 0.2-0.8 0.3-1.2 0.2-0.6 0.2-1.1 0.3-1.7 0.1-0.4 0.1-0.9 0.1-1.3 0.1-0.6 0.1-1.3 0-1.9 0-0.5-0.1-1.1-0.1-1.6 0-0.5-0.1-0.9-0.2-1.4-0.1-0.5-0.2-0.9-0.3-1.4-0.2-0.4-0.3-0.8-0.4-1.3-0.1-0.4-0.3-0.7-0.3-1.1 0-0.3-0.1-0.6-0.4-0.7-0.3-0.1-0.5-0.2-0.8-0.4-0.6-0.4-0.9-0.9-0.8-1.5 0-0.3 0.1-0.7 0.2-1 0.1-0.3 0.2-0.6 0-0.8-0.1-0.3-0.3-0.5-0.4-0.7-0.2-0.3-0.3-0.5-0.5-0.7-0.2-0.4-0.4-0.8-0.7-1.1-0.4-0.5-0.7-1-1.2-1.4l-0.1-0.1c-0.3-0.4-0.6-0.8-1-1.1-0.2-0.2-0.4-0.4-0.6-0.5-0.1-0.1-0.2-0.2-0.4-0.3-0.3-0.2-0.6-0.3-0.8-0.5-0.3-0.3-0.7-0.5-1-0.7 0 0-0.1 0-0.1-0.1-0.4-0.2-0.7-0.3-1.1-0.5-0.4-0.2-0.8-0.3-1.2-0.3-0.1 0-0.1 0-0.2 0-0.1-0.1-0.3-0.1-0.4-0.1-0.1 0-0.1 0-0.2 0-0.2-0.1-0.5 0-0.7 0-0.4 0.1-0.8 0.1-1.2-0.1-0.5-0.2-0.9-0.4-1.3-0.6-0.3-0.2-0.5-0.4-0.8-0.6-0.6-0.5-1.2-1.1-1.9-1.6 0.1-0.5-0.1-0.6-0.5-0.6-0.2 0-0.4 0.1-0.6 0.2-0.1 0.1-0.1 0.1-0.2 0.2-0.3 0.2-0.5 0.5-0.8 0.7-0.5 0.3-0.7 0.2-1.1 0-0.1-0.1-0.2-0.2-0.3-0.3-0.2-0.2-0.4-0.5-0.5-0.7-0.2-0.4-0.6-0.4-1-0.4-0.2 0-0.5 0.1-0.7 0.1-0.4 0-0.8 0.2-1 0.5-0.2 0.3-0.4 0.6-0.7 0.9-0.1 0.1-0.3 0.2-0.4 0.4-0.2 0.2-0.4 0.2-0.6 0-0.1-0.1-0.2-0.1-0.3-0.2-0.1 0.1-0.2 0.2-0.2 0.3-0.1 0.2-0.2 0.4-0.3 0.7-0.1 0.3-0.3 0.6-0.5 0.8-0.1 0.1-0.1 0.1-0.2 0.2-0.1 0.2-0.4 0.3-0.6 0.3-0.2 0.2-0.4 0.5-0.5 0.7-0.1 0.2-0.2 0.4-0.3 0.7-0.1 0.1-0.1 0.3-0.2 0.4-0.1 0.2-0.1 0.3-0.1 0.5 0.1 0.3-0.1 0.4-0.4 0.5-0.2 0-0.2 0-0.3 0.2 0 0.3 0.1 0.5 0.2 0.8 0.1 0.1 0.2 0.3 0.2 0.4 0 0.2 0.1 0.3 0.3 0.4 0.1 0.1 0.2 0.2 0.3 0.2 0.1 0 0.1 0.1 0.2 0.1 0.1 0.1 0.2 0 0.2-0.1 0.1-0.3 0.2-0.6 0.2-0.9 0.1-0.4 0.1-0.7 0.2-1.1 0.1-0.2 0.2-0.3 0.3-0.4 0 0 0.1 0 0.2 0v0.1c-0.1 0.5-0.3 1.1-0.4 1.6-0.1 0.2-0.1 0.4-0.2 0.6 0 0.1-0.1 0.2-0.2 0.2-0.2 0.1-0.4 0.2-0.6 0.2-0.1 0-0.2 0-0.3 0-0.2-0.1-0.4-0.3-0.6-0.4-0.1-0.1-0.2-0.2-0.3-0.3-0.1-0.2-0.2-0.4-0.3-0.6-0.1-0.2-0.2-0.3-0.4-0.4-0.1-0.1-0.2-0.1-0.3-0.2-0.2-0.2-0.4-0.3-0.7-0.3-0.1 0-0.3 0-0.4 0-0.1 0-0.3 0.1-0.4 0.2-0.2 0.1-0.3 0.1-0.5 0-0.5-0.2-1-0.1-1.5 0.1-0.2 0.1-0.4 0.2-0.6 0.2-0.5 0-0.9 0-1.4 0-0.5 0-0.9-0.1-1.4-0.2-0.2 0-0.4 0-0.6 0-0.4 0.1-0.5 0.4-0.4 0.8 0.1 0.4 0.2 0.9 0.2 1.3 0 0.3 0 0.6 0 0.9 0 0.2 0 0.3 0 0.5 0 0.3-0.1 0.6-0.1 0.9-0.1 0.6-0.4 1.1-0.8 1.5-0.3 0.3-0.7 0.6-1.1 0.7-0.2 0.1-0.4 0.2-0.7 0.3-0.5 0.2-0.9 0.6-1.2 1.1-0.1 0.2-0.2 0.4-0.3 0.6-0.2 0.3-0.3 0.5-0.5 0.8-0.1 0.2-0.3 0.4-0.4 0.6-0.1 0.2-0.3 0.3-0.3 0.5-0.2 0.4-0.3 0.8-0.5 1.2-0.1 0.2-0.1 0.5-0.2 0.7-0.2 0.4-0.2 0.8-0.2 1.3 0 0.1 0 0.2 0 0.4 0 0.5-0.1 1.1-0.1 1.6 0 0.5 0 1 0.1 1.5 0 0.2 0 0.5 0 0.7 0 0.4 0.1 0.9 0.1 1.3 0 0.4 0 0.9 0.2 1.3v0.1c0.1 0.4 0.1 0.8 0.2 1.2 0 0.1 0 0.2 0.1 0.3 0.2 0.6 0.3 1.1 0.5 1.7 0.1 0.4 0.3 0.8 0.4 1.2 0.1 0.4 0.5 0.8 0.6 1.3v0c0.3 0.6 0.6 1.2 1 1.8 0.1 0.2 0.3 0.4 0.4 0.6 0.2 0.3 0.3 0.6 0.5 0.8 0.1 0.2 0.3 0.4 0.4 0.5 0.1 0.2 0.2 0.4 0.4 0.6 0.2 0.2 0.4 0.5 0.6 0.7 0.3 0.5 0.7 0.9 1.1 1.2 0.2 0.2 0.4 0.3 0.6 0.5 0.1 0.1 0.2 0.1 0.2 0.2 0.1 0.1 0.2 0.2 0.4 0.3 0.8 0.4 1.4 1 2.1 1.6 0.3 0.3 0.6 0.6 1 0.8 0.4 0.3 0.7 0.6 1.2 0.7 0 0 0.1 0 0.1 0.1 0.2 0.2 0.5 0.3 0.7 0.4 0.4 0.2 0.9 0.4 1.3 0.6 0.1 0.1 0.3 0.1 0.4 0.2 0.3 0.1 0.6 0.2 0.9 0.3 0.3 0.1 0.5 0.2 0.8 0.2h0.1c0.2 0.1 0.3 0.1 0.5 0 0.1 0 0.2 0 0.2 0.1 0 0.1 0.1 0.1 0.2 0.1 0.1 0 0.2 0 0.4 0 0.1-0.1 0.1-0.2 0.2-0.4 0.1 0.1 0.2 0.1 0.2 0.1 0.1 0.2 0.3 0.2 0.5 0.2h0.1c0.2 0 0.3 0 0.4-0.1 0-0.1 0.2-0.1 0.3-0.1 0.3 0.1 0.6 0.1 0.9 0.2 0.2 0.1 0.5 0.1 0.6-0.1 0.1-0.1 0.2-0.2 0.4-0.1 0.2 0.1 0.3 0.1 0.5 0 0.1 0 0.2 0 0.2 0 0.3 0.1 0.5 0.1 0.8 0.2 0.4 0.1 0.4 0.1 0.7-0.2 0.1-0.1 0.3-0.1 0.4 0 0.1 0.2 0.1 0.3 0.1 0.5 0.1 0 0.1 0 0.2-0.1 0-0.2 0.1-0.2 0.3-0.3 0.1 0.1 0.1 0.1 0.2 0.1 0.2 0.2 0.3 0.2 0.4-0.1 0-0.1 0-0.2 0.1-0.2 0.1 0 0.2 0.1 0.2 0.1 0.1 0.2 0.3 0.3 0.4 0.5 0.2 0.2 0.5 0.2 0.6 0 0.1-0.1 0.2-0.1 0.3-0.1 0-0.1 0-0.2 0-0.3 0.3 0.2 0.2 0.2 0.1 0.2zM37.4 23.8c0.3 0.1 0.5 0.1 0.6-0.1-0.2 0.1-0.4-0.1-0.6 0.1z" fill="#efd9cc" fill-rule="nonzero" stroke="none" stroke-width="1" stroke-linecap="butt" stroke-linejoin="miter" stroke-miterlimit="10" stroke-dasharray="" stroke-dashoffset="0" font-family="none" font-weight="none" font-size="none" text-anchor="none" style="mix-blend-mode: normal" data-fill-palette-color="tertiary"></path></g><g transform="matrix(1,0,0,1,64,148.5701208516194)"><svg viewBox="0 0 192 62.85975829676117" height="62.85975829676117" width="192"><g><svg viewBox="0 0 284.9076954120096 93.27723370044885" height="62.85975829676117" width="192"><g transform="matrix(1,0,0,1,0,12.891426654693007)"><svg viewBox="0 0 192 67.49438039106283" height="67.49438039106283" width="192"><g id="textblocktransform"><svg viewBox="0 0 192 67.49438039106283" height="67.49438039106283" width="192" id="textblock"><g><svg viewBox="0 0 192 46.755497210370855" height="46.755497210370855" width="192"><g transform="matrix(1,0,0,1,0,0)"><svg width="192" viewBox="4 -36.3 149.48 37.099999999999994" height="46.755497210370855" data-palette-color="#050505"><g class="wordmark-text-0" data-fill-palette-color="primary" id="text-0"><path d="M4 0L4-34.1 15.4-34.1Q20-34.1 22.75-31.3 25.5-28.5 25.5-23.55L25.5-23.55Q25.5-18.65 22.63-15.85 19.75-13.05 15-13.05L15-13.05 7.75-13.05 7.75 0 4 0ZM7.75-16.15L14.9-16.15Q18.25-16.15 20-18.03 21.75-19.9 21.75-23.55L21.75-23.55Q21.75-27.2 20-29.1 18.25-31 14.9-31L14.9-31 7.75-31 7.75-16.15ZM48.25-23.4L51.65-23.4 51.65 0 48.25 0 48.25-3.45Q46.8-1.45 44.7-0.33 42.6 0.8 40.1 0.8L40.1 0.8Q36.75 0.8 34.1-0.8 31.45-2.4 29.95-5.25 28.45-8.1 28.45-11.75L28.45-11.75Q28.45-15.35 29.92-18.18 31.4-21 34.02-22.6 36.65-24.2 40-24.2L40-24.2Q42.55-24.2 44.67-23.08 46.8-21.95 48.25-19.9L48.25-19.9 48.25-23.4ZM40-2.3Q42.4-2.3 44.27-3.5 46.15-4.7 47.2-6.85 48.25-9 48.25-11.7L48.25-11.7Q48.25-14.4 47.2-16.55 46.15-18.7 44.27-19.9 42.4-21.1 40-21.1L40-21.1Q37.65-21.1 35.8-19.9 33.95-18.7 32.9-16.57 31.85-14.45 31.85-11.75L31.85-11.75Q31.85-9 32.9-6.85 33.95-4.7 35.8-3.5 37.65-2.3 40-2.3L40-2.3ZM62.59 0L59.2 0 59.2-20.3 55.2-20.3 55.2-23.4 59.2-23.4 59.2-31.15 62.59-31.15 62.59-23.4 68-23.4 68-20.3 62.59-20.3 62.59 0ZM81.84 0.8Q78.44 0.8 75.79-0.8 73.14-2.4 71.64-5.25 70.14-8.1 70.14-11.7L70.14-11.7Q70.14-15.3 71.62-18.15 73.09-21 75.74-22.6 78.39-24.2 81.74-24.2L81.74-24.2Q84.59-24.2 86.72-22.98 88.84-21.75 90.59-19.5L90.59-19.5 88.09-17.55Q85.64-21.1 81.74-21.1L81.74-21.1Q79.39-21.1 77.52-19.9 75.64-18.7 74.59-16.55 73.54-14.4 73.54-11.7L73.54-11.7Q73.54-9 74.59-6.85 75.64-4.7 77.52-3.5 79.39-2.3 81.74-2.3L81.74-2.3Q84.14-2.3 85.69-3.13 87.24-3.95 88.49-5.55L88.49-5.55 91.14-3.7Q89.49-1.65 87.07-0.43 84.64 0.8 81.84 0.8L81.84 0.8ZM106.69-24.2Q109.14-24.2 111.22-23.2 113.29-22.2 114.52-20.25 115.74-18.3 115.74-15.65L115.74-15.65 115.74 0 112.34 0 112.34-14.15Q112.34-21.1 106.14-21.1L106.14-21.1Q102.54-21.1 100.74-18.55 98.94-16 98.94-11.7L98.94-11.7 98.94 0 95.54 0 95.54-36.3 98.94-36.3 98.94-19.5Q100.14-21.75 102.12-22.98 104.09-24.2 106.69-24.2L106.69-24.2Z" fill="#050505" data-fill-palette-color="primary"></path><path d="M135.29 0L131.89 0 131.89-23.4 135.29-23.4 135.29 0ZM133.59-27.95Q132.44-27.95 131.66-28.75 130.89-29.55 130.89-30.7L130.89-30.7Q130.89-31.8 131.66-32.58 132.44-33.35 133.59-33.35L133.59-33.35Q134.69-33.35 135.49-32.58 136.29-31.8 136.29-30.65L136.29-30.65Q136.29-29.55 135.49-28.75 134.69-27.95 133.59-27.95L133.59-27.95ZM148.08 0L144.69 0 144.69-20.3 140.68-20.3 140.68-23.4 144.69-23.4 144.69-31.15 148.08-31.15 148.08-23.4 153.48-23.4 153.48-20.3 148.08-20.3 148.08 0Z" fill="#efd9cc" data-fill-palette-color="secondary"></path></g></svg></g></svg></g><g transform="matrix(1,0,0,1,79.27680000000001,57.79334796980636)"><svg viewBox="0 0 112.72319999999999 9.701032421256468" height="9.701032421256468" width="112.72319999999999"><g transform="matrix(1,0,0,1,0,0)"><svg width="112.72319999999999" viewBox="3.1 -36.75757568307199 435.792352940992 37.50757568307199" height="9.701032421256468" data-palette-color="#efd9cc"><path d="M17.75-35.05Q21.2-34.85 23.48-32.25 25.75-29.65 25.75-24.45L25.75-24.45Q25.75-21.05 24.3-19.05 22.85-17.05 20.95-16.28 19.05-15.5 17.6-15.5L17.6-15.5Q16.25-15.5 13.05-15.2L13.05-15.2Q11.2-15 10.05-14.95L10.05-14.95Q9.95-10.35 9.95-8.7L9.95-8.7Q9.95-2.2 10.1-1.65L10.1-1.65Q10.2-1.15 9.93-0.78 9.65-0.4 9.22-0.28 8.8-0.15 8.45-0.3L8.45-0.3Q8.3-0.35 7.6-0.35L7.6-0.35Q6.1-0.35 4.4-0.15L4.4-0.15Q3.6-0.05 3.35-0.48 3.1-0.9 3.1-1.8L3.1-1.8Q3.1-2.9 3.15-3.8L3.15-3.8 3.2-8 3.3-13.9Q3.6-24.5 3.6-30.45L3.6-30.45Q3.6-32.25 3.55-32.6L3.55-32.6Q3.45-33.7 3.45-33.9L3.45-33.9Q3.45-35.2 4-35.2L4-35.2Q4.25-35.2 5.03-35.15 5.8-35.1 7.2-35.1L7.2-35.1Q7.6-35.1 9.25-35.15 10.9-35.2 12.7-35.2L12.7-35.2Q15.35-35.2 17.75-35.05L17.75-35.05ZM16.2-19.1Q18.05-19.1 19.65-20.2 21.25-21.3 21.25-24.15L21.25-24.15Q21.25-27.2 20-28.78 18.75-30.35 16.35-30.8L16.35-30.8Q12.6-31.55 10.45-31.4L10.45-31.4Q10.45-30 10.4-29.3L10.4-29.3Q10.3-26.5 10.15-25.3L10.15-25.3Q9.95-23.55 10.05-21.35L10.05-21.35 10.15-19.4 12.5-19.25Q13.85-19.1 16.2-19.1L16.2-19.1ZM54.5-1Q54.75-0.5 54.75-0.35L54.75-0.35Q54.75 0.05 53.85 0.05L53.85 0.05 50.25 0.05Q50.05 0.05 49.85-0.3 49.65-0.65 49.5-1 49.35-1.35 49.25-1.6L49.25-1.6Q49-2.1 48.32-3.9 47.65-5.7 47.3-6.75L47.3-6.75Q47.15-7.25 46.7-8.22 46.25-9.2 46.05-9.6L46.05-9.6Q45.85-10.2 45.67-10.4 45.5-10.6 45.15-10.6L45.15-10.6Q44.8-10.6 44.27-10.55 43.75-10.5 43.15-10.45L43.15-10.45Q42.75-10.35 40.65-10.35L40.65-10.35Q39.2-10.35 37.8-10.25L37.8-10.25Q37.35-10.2 36.2-10.2L36.2-10.2 33.55-10.25Q33.3-10.25 33.17-10.05 33.05-9.85 33-9.58 32.95-9.3 32.9-9.15L32.9-9.15 32.6-7.9Q32.45-7.2 32.22-6.28 32-5.35 31.85-4.55L31.85-4.55 31.3-2.4 30.9-0.95Q30.75-0.35 30.62-0.18 30.5 0 30.25 0L30.25 0 27.3 0Q27.05 0 27.05-0.2L27.05-0.2Q27.05-0.3 27.25-0.9L27.25-0.9Q27.65-1.85 27.95-2.8L27.95-2.8Q29.8-9 30.15-10.9L30.15-10.9Q30.6-13.4 32-17.35L32-17.35Q32.45-19.05 32.85-20.45L32.85-20.45Q33-21.15 33.3-22.15L33.3-22.15Q34.25-25.65 35.2-28.7L35.2-28.7 36.45-32.7Q36.85-34.25 37.45-35.9L37.45-35.9Q37.75-36.65 38.15-36.25L38.15-36.25Q38.45-36.05 38.6-35.55 38.75-35.05 38.8-34.85L38.8-34.85Q38.95-34.25 41.45-28.85L41.45-28.85Q42.45-26.8 43.6-23.5L43.6-23.5Q44.1-22.05 46.35-17.25L46.35-17.25Q47.5-14.9 47.85-14L47.85-14Q48.65-12.25 52.15-5.5L52.15-5.5 52.75-4.25Q53.9-1.7 54.5-1L54.5-1ZM41.4-17.5Q41.75-17.55 42-17.55 42.25-17.55 42.4-17.6 42.55-17.65 42.55-17.75L42.55-17.75Q42.55-17.85 42.4-18.15L42.4-18.15Q42.15-18.6 41.25-20.68 40.35-22.75 40-23.8L40-23.8Q39.5-25 39.22-25.8 38.95-26.6 38.8-26.9L38.8-26.9Q38.7-27.15 38.57-27.4 38.45-27.65 38.35-27.8 38.25-27.95 38.15-27.95L38.15-27.95Q38-27.95 37.82-27.2 37.65-26.45 37.55-26.05L37.55-26.05Q36.65-23.15 36.25-21.65L36.25-21.65Q36.05-20.9 35.67-19.83 35.3-18.75 35.15-18.35L35.15-18.35Q35-17.85 35-17.55L35-17.55Q35-17.25 35.45-17.25L35.45-17.25Q36.5-17.25 38.67-17.32 40.85-17.4 41.4-17.5L41.4-17.5ZM81.9-35.95Q82.5-35.9 82.62-35.65 82.75-35.4 82.72-34.98 82.7-34.55 82.7-34.35L82.7-34.35Q82.75-33.7 82.45-33.45 82.15-33.2 81.5-33.2L81.5-33.2Q81.1-33.2 79.97-33.15 78.85-33.1 77.25-33.15L77.25-33.15 77.05-33.15 76.95-24.1 76.9-15.3Q76.9-13.3 77.12-10.23 77.35-7.15 77.4-6.35L77.4-6.35Q77.7-2.35 77.7-1.85L77.7-1.85Q77.75-0.85 77.25-0.55 76.75-0.25 75.5-0.25L75.5-0.25 73.3-0.3Q73.05-0.3 65.1-0.45L65.1-0.45 62-0.5Q61.5-0.5 61.5-1.5L61.5-1.5Q61.5-1.85 61.6-2.85L61.6-2.85Q61.7-4.15 61.7-4.85L61.7-4.85Q61.6-6.15 61.6-9.4L61.6-9.4Q61.6-13.75 61.72-18.7 61.85-23.65 62.05-26.15L62.05-26.15Q62.15-27.45 62.15-29.65L62.15-29.65Q62.15-32.1 62-33.35L62-33.35 61.1-33.4 56.95-33.3Q56.55-33.3 56.55-34.1L56.55-34.1 56.6-35.2Q56.6-35.6 56.72-35.73 56.85-35.85 57.15-35.85L57.15-35.85Q57.35-35.85 57.65-35.8 57.95-35.75 58.35-35.75L58.35-35.75 69-35.8 77.7-35.9Q79.75-35.95 81.9-35.95L81.9-35.95ZM98.69-36Q102.79-36 104.89-34.52 106.99-33.05 107.82-31.83 108.64-30.6 108.84-30.3L108.84-30.3Q109.34-29.65 109.34-29.3L109.34-29.3Q109.34-29 109.14-28.8 108.94-28.6 108.64-28.45 108.34-28.3 108.24-28.2L108.24-28.2Q107.64-27.8 106.64-26.95L106.64-26.95Q106.19-26.6 105.32-25.93 104.44-25.25 104.14-25.1L104.14-25.1Q103.94-24.95 103.74-24.95L103.74-24.95Q103.39-24.95 103.09-25.35 102.79-25.75 102.69-25.9L102.69-25.9Q102.59-26.05 102.17-26.55 101.74-27.05 101.09-27.4 100.44-27.75 99.64-27.75L99.64-27.75Q98.14-27.75 97.29-25.8 96.44-23.85 96.44-18.85L96.44-18.85Q96.44-15.55 96.99-13.45 97.54-11.35 98.32-10.43 99.09-9.5 99.79-9.5L99.79-9.5Q100.79-9.5 101.32-9.95 101.84-10.4 102.24-11.65L102.24-11.65Q102.64-12.85 103.54-12.85L103.54-12.85Q103.84-12.85 104.22-12.75 104.59-12.65 104.79-12.6L104.79-12.6Q105.29-12.4 107.24-11.98 109.19-11.55 110.59-11.3L110.59-11.3Q111.29-11.15 111.29-10.1L111.29-10.1Q111.29-9.6 111.24-9.35L111.24-9.35Q111.19-8.7 110.84-7.6L110.84-7.6Q109.79-4.4 107.27-1.83 104.74 0.75 99.74 0.75L99.74 0.75Q96.69 0.75 93.59-1.1 90.49-2.95 88.34-7.28 86.19-11.6 86.19-18.65L86.19-18.65Q86.19-28.65 90.04-32.33 93.89-36 98.69-36L98.69-36ZM125.39-21.5L127.54-21.45Q128.59-21.45 129.49-21.55L129.49-21.55Q129.79-21.6 130.44-21.6L130.44-21.6Q131.14-21.6 131.49-21.55L131.49-21.55 132.64-21.45 132.79-22.95 132.94-25.35 133.04-30.25 133.14-34.1Q133.19-34.85 133.34-35.1 133.49-35.35 134.04-35.4L134.04-35.4Q134.54-35.4 136.84-35.7L136.84-35.7Q137.24-35.75 138.29-35.75L138.29-35.75Q139.89-35.75 140.94-35.6L140.94-35.6Q141.49-35.5 141.62-35.38 141.74-35.25 141.77-34.95 141.79-34.65 141.84-34.4L141.84-34.4Q141.84-33.6 141.69-31.7L141.69-31.7Q141.49-28.2 141.49-26.9L141.49-26.9Q141.49-26.25 141.19-22.75L141.19-22.75Q140.89-18.95 140.89-17.8L140.89-17.8 140.99-7.9Q140.99-2.3 141.19-1.05L141.19-1.05 141.19-0.95Q141.19-0.4 140.99-0.28 140.79-0.15 140.54-0.18 140.29-0.2 140.19-0.2L140.19-0.2Q139.79-0.3 139.19-0.3L139.19-0.3Q138.99-0.3 137.89-0.2L137.89-0.2Q136.49-0.05 133.39-0.05L133.39-0.05 133.29-0.05Q132.59-0.05 132.59-0.5L132.59-0.5Q132.59-1.45 132.57-4.25 132.54-7.05 132.39-8.35L132.39-8.35Q132.29-10.25 132.29-12.05L132.29-12.05Q132.24-12.8 132.24-14.35L132.24-14.35 130.79-14.35 128.64-14.3 127.74-14.25 126.74-14.3Q125.99-14.3 125.54-14.35L125.54-14.35 125.39-11.2Q125.24-9.45 125.24-6.65L125.24-6.65 125.24-4.1Q125.24-1.4 125.34-0.85L125.34-0.85Q125.44-0.25 125.17-0.13 124.89 0 124.52 0 124.14 0 123.99 0L123.99 0Q123.59-0.05 122.64-0.13 121.69-0.2 121.09-0.2L121.09-0.2 119.64-0.1Q119.29-0.05 117.04 0.1L117.04 0.1Q115.89 0.25 115.89-1.3L115.89-1.3 115.94-3.25 116.04-6.85Q116.04-7.95 116.09-8.9L116.09-8.9 116.14-14.7Q116.14-16.7 116.09-17.25L116.09-17.25Q115.94-18.4 115.94-20.25L115.94-20.25 115.99-23.3Q116.04-24.05 116.04-25.25L116.04-25.25Q116.04-26.65 116.34-31.05L116.34-31.05 116.49-34.5Q116.49-34.9 116.64-35.05 116.79-35.2 117.09-35.2L117.09-35.2 117.74-35.15Q118.39-35.05 119.44-35 120.49-34.95 121.49-34.95L121.49-34.95 123.79-35Q124.34-35.05 125.04-35.05L125.04-35.05 125.09-35.05Q125.49-35.05 125.49-34.5L125.49-34.5Q125.54-34.4 125.57-32.52 125.59-30.65 125.59-28.1L125.59-28.1Q125.59-26.5 125.49-23.8L125.49-23.8 125.39-21.5ZM186.39-35.95Q186.99-35.9 187.11-35.65 187.24-35.4 187.21-34.98 187.19-34.55 187.19-34.35L187.19-34.35Q187.24-33.7 186.94-33.45 186.64-33.2 185.99-33.2L185.99-33.2Q185.59-33.2 184.46-33.15 183.34-33.1 181.74-33.15L181.74-33.15 181.54-33.15 181.44-24.1 181.39-15.3Q181.39-13.3 181.61-10.23 181.84-7.15 181.89-6.35L181.89-6.35Q182.19-2.35 182.19-1.85L182.19-1.85Q182.24-0.85 181.74-0.55 181.24-0.25 179.99-0.25L179.99-0.25 177.79-0.3Q177.54-0.3 169.59-0.45L169.59-0.45 166.49-0.5Q165.99-0.5 165.99-1.5L165.99-1.5Q165.99-1.85 166.09-2.85L166.09-2.85Q166.19-4.15 166.19-4.85L166.19-4.85Q166.09-6.15 166.09-9.4L166.09-9.4Q166.09-13.75 166.21-18.7 166.34-23.65 166.54-26.15L166.54-26.15Q166.64-27.45 166.64-29.65L166.64-29.65Q166.64-32.1 166.49-33.35L166.49-33.35 165.59-33.4 161.44-33.3Q161.04-33.3 161.04-34.1L161.04-34.1 161.09-35.2Q161.09-35.6 161.21-35.73 161.34-35.85 161.64-35.85L161.64-35.85Q161.84-35.85 162.14-35.8 162.44-35.75 162.84-35.75L162.84-35.75 173.49-35.8 182.19-35.9Q184.24-35.95 186.39-35.95L186.39-35.95ZM201.18-21.5L203.33-21.45Q204.38-21.45 205.28-21.55L205.28-21.55Q205.58-21.6 206.23-21.6L206.23-21.6Q206.93-21.6 207.28-21.55L207.28-21.55 208.43-21.45 208.58-22.95 208.73-25.35 208.83-30.25 208.93-34.1Q208.98-34.85 209.13-35.1 209.28-35.35 209.83-35.4L209.83-35.4Q210.33-35.4 212.63-35.7L212.63-35.7Q213.03-35.75 214.08-35.75L214.08-35.75Q215.68-35.75 216.73-35.6L216.73-35.6Q217.28-35.5 217.41-35.38 217.53-35.25 217.56-34.95 217.58-34.65 217.63-34.4L217.63-34.4Q217.63-33.6 217.48-31.7L217.48-31.7Q217.28-28.2 217.28-26.9L217.28-26.9Q217.28-26.25 216.98-22.75L216.98-22.75Q216.68-18.95 216.68-17.8L216.68-17.8 216.78-7.9Q216.78-2.3 216.98-1.05L216.98-1.05 216.98-0.95Q216.98-0.4 216.78-0.28 216.58-0.15 216.33-0.18 216.08-0.2 215.98-0.2L215.98-0.2Q215.58-0.3 214.98-0.3L214.98-0.3Q214.78-0.3 213.68-0.2L213.68-0.2Q212.28-0.05 209.18-0.05L209.18-0.05 209.08-0.05Q208.38-0.05 208.38-0.5L208.38-0.5Q208.38-1.45 208.36-4.25 208.33-7.05 208.18-8.35L208.18-8.35Q208.08-10.25 208.08-12.05L208.08-12.05Q208.03-12.8 208.03-14.35L208.03-14.35 206.58-14.35 204.43-14.3 203.53-14.25 202.53-14.3Q201.78-14.3 201.33-14.35L201.33-14.35 201.18-11.2Q201.03-9.45 201.03-6.65L201.03-6.65 201.03-4.1Q201.03-1.4 201.13-0.85L201.13-0.85Q201.23-0.25 200.96-0.13 200.68 0 200.31 0 199.93 0 199.78 0L199.78 0Q199.38-0.05 198.43-0.13 197.48-0.2 196.88-0.2L196.88-0.2 195.43-0.1Q195.08-0.05 192.83 0.1L192.83 0.1Q191.68 0.25 191.68-1.3L191.68-1.3 191.73-3.25 191.83-6.85Q191.83-7.95 191.88-8.9L191.88-8.9 191.93-14.7Q191.93-16.7 191.88-17.25L191.88-17.25Q191.73-18.4 191.73-20.25L191.73-20.25 191.78-23.3Q191.83-24.05 191.83-25.25L191.83-25.25Q191.83-26.65 192.13-31.05L192.13-31.05 192.28-34.5Q192.28-34.9 192.43-35.05 192.58-35.2 192.88-35.2L192.88-35.2 193.53-35.15Q194.18-35.05 195.23-35 196.28-34.95 197.28-34.95L197.28-34.95 199.58-35Q200.13-35.05 200.83-35.05L200.83-35.05 200.88-35.05Q201.28-35.05 201.28-34.5L201.28-34.5Q201.33-34.4 201.36-32.52 201.38-30.65 201.38-28.1L201.38-28.1Q201.38-26.5 201.28-23.8L201.28-23.8 201.18-21.5ZM225.13-35.25Q225.78-35.2 226.41-35.23 227.03-35.25 227.48-35.25L227.48-35.25Q228.58-35.25 229.08-35.2L229.08-35.2Q229.68-35.15 229.93-34.95 230.18-34.75 230.18-34.4L230.18-34.4Q230.18-34.15 230.13-33.85 230.08-33.55 230.03-33.3L230.03-33.3Q229.48-29.05 229.43-24.55L229.43-24.55Q229.38-23.25 229.38-20.55L229.38-20.55 229.43-14.5Q229.48-13.75 229.48-12.95L229.48-12.95 229.53-10.95Q229.63-8.35 229.63-7.1L229.63-7.1Q229.63-6.15 229.58-5.95L229.58-5.95Q229.53-5.75 229.53-4.8L229.53-4.8 229.58-2.05Q229.63-1.45 229.63-0.55L229.63-0.55Q229.68 0.1 229.26 0.28 228.83 0.45 228.13 0.4L228.13 0.4 223.58 0.4Q222.83 0.45 222.63 0.08 222.43-0.3 222.38-1.15L222.38-1.15Q222.28-1.5 222.48-3L222.48-3Q222.68-4.4 222.68-5.4L222.68-5.4Q222.68-5.75 223.03-12.15L223.03-12.15Q223.33-16.85 223.33-17.3L223.33-17.3 223.43-22.2 223.53-26.75 223.63-29.45 223.73-31.25 223.73-33.35Q223.73-35.3 224.73-35.3L224.73-35.3Q224.98-35.3 225.13-35.25L225.13-35.25ZM249.78-31.15Q249.78-34.25 249.83-35L249.83-35Q249.83-35.95 250.48-36.15 251.13-36.35 252.38-36.35L252.38-36.35Q253.48-36.35 255.2-36.48 256.93-36.6 257.88-36.75L257.88-36.75Q258.58-36.8 258.88-36.52 259.18-36.25 259.18-35.6L259.18-35.6Q259.18-35.4 259.08-34.5L259.08-34.5Q258.98-33.75 258.98-24.55L258.98-24.55 258.98-13.25Q258.98-10.7 259.05-7.63 259.13-4.55 259.23-2.1 259.33 0.35 259.33-0.75L259.33-0.75Q259.33 0.05 258.53 0.05L258.53 0.05Q258.18 0.05 257.93 0L257.93 0Q257.73-0.05 257.13-0.05L257.13-0.05Q256.53-0.05 255.23 0.05L255.23 0.05Q253.83 0.15 253.28 0.15L253.28 0.15Q252.33 0.15 251.85-0.25 251.38-0.65 250.88-1.7L250.88-1.7 250.03-3.4Q248.53-6.75 247.38-8.65L247.38-8.65Q246.73-9.75 244.08-14.7L244.08-14.7 241.88-18.85 241.88-16.95 241.88-15.8Q241.88-15.4 241.85-14.8 241.83-14.2 241.88-13.45L241.88-13.45Q241.88-10.85 241.95-6.65 242.03-2.45 242.18-1.6L242.18-1.6Q242.23-1.35 242.23-1L242.23-1Q242.23-0.5 242.03-0.38 241.83-0.25 241.28-0.3L241.28-0.3Q240.48-0.3 239.4-0.2 238.33-0.1 237.38 0L237.38 0Q236.63 0.1 236.4-0.25 236.18-0.6 236.23-1.8L236.23-1.8Q236.23-3.6 236.08-8.15L236.08-8.15Q235.88-12.9 235.83-16.4L235.83-16.4Q235.83-19.95 235.98-23.6L235.98-23.6Q236.08-28.2 236.08-29.9L236.08-29.9Q236.08-32.2 235.93-33.25L235.93-33.25Q235.83-34.15 235.83-34.4L235.83-34.4Q235.83-35.3 236.13-35.63 236.43-35.95 236.93-35.95L236.93-35.95Q237.18-35.95 237.93-35.93 238.68-35.9 240.08-36.25L240.08-36.25Q240.63-36.35 241.18-36.35L241.18-36.35Q241.48-36.35 242.03-36.3 242.58-36.25 243.48-36.25L243.48-36.25Q244.63-36.25 245.4-35.35 246.18-34.45 247.08-32.8L247.08-32.8 247.58-31.9Q248.18-30.8 249.03-29.55L249.03-29.55 249.78-28.4 249.78-31.15ZM276.18-35.4Q279.58-35.4 281.35-34.25 283.13-33.1 283.83-32.13 284.53-31.15 284.73-30.95L284.73-30.95Q285.13-30.5 285.13-30L285.13-30Q285.13-29.4 284.68-28.95L284.68-28.95Q284.23-28.5 283.55-27.95 282.88-27.4 282.33-27L282.33-27Q282.08-26.85 281.88-26.85L281.88-26.85Q281.43-26.85 280.98-27.3L280.98-27.3Q280.88-27.4 279.53-28.98 278.18-30.55 275.48-30.55L275.48-30.55Q273.43-30.55 271.93-28.38 270.43-26.2 269.65-23.13 268.88-20.05 268.88-17.4L268.88-17.4Q268.88-14.65 269.68-11.55 270.48-8.45 272.25-6.25 274.03-4.05 276.73-4.05L276.73-4.05Q280.33-4.05 282.23-6.85L282.23-6.85Q283.03-8.15 283.28-9.7L283.28-9.7 281.83-9.7 279.58-9.75 274.53-9.8Q273.68-9.8 273.68-10.6L273.68-10.6 273.68-12.55Q273.68-13.05 273.83-13.18 273.98-13.3 274.23-13.3L274.23-13.3 276.53-13.3 286.78-13.55Q287.23-13.55 287.45-13.1 287.68-12.65 287.63-11.9L287.63-11.9Q287.63-10.15 286.98-7.38 286.33-4.6 283.78-1.98 281.23 0.65 276.18 0.65L276.18 0.65Q272.43 0.65 269.75-2.2 267.08-5.05 265.75-9.53 264.43-14 264.43-18.7L264.43-18.7Q264.43-23.1 266.05-26.95 267.68-30.8 270.4-33.1 273.13-35.4 276.18-35.4L276.18-35.4ZM302.87-35.25Q307.22-35.25 309.32-33.55 311.42-31.85 311.52-31.75L311.52-31.75Q312.02-31.4 312.02-31.05L312.02-31.05Q312.02-30.85 311.82-30.65L311.82-30.65Q311.67-30.45 311.22-29.8 310.77-29.15 310.52-29.15L310.52-29.15Q310.27-29.15 309.87-29.4L309.87-29.4 309.52-29.7Q305.72-32.45 303.02-32.45L303.02-32.45Q299.57-32.45 297.8-30.88 296.02-29.3 296.02-26.9L296.02-26.9Q296.02-24.85 297.5-23.4 298.97-21.95 301.37-20.65L301.37-20.65Q302.07-20.35 302.82-20.1L302.82-20.1Q305.32-19.15 307.2-18.07 309.07-17 310.57-14.83 312.07-12.65 312.07-9.35L312.07-9.35Q312.07-3.7 308.22-1.63 304.37 0.45 299.62 0.45L299.62 0.45Q296.87 0.45 294.65-0.8 292.42-2.05 291.47-3L291.47-3Q290.97-3.45 291.22-3.9L291.22-3.9Q291.27-4 291.65-4.7 292.02-5.4 292.32-5.4L292.32-5.4 292.42-5.4Q292.57-5.4 292.7-5.33 292.82-5.25 293-5.05 293.17-4.85 293.42-4.6L293.42-4.6Q294.07-3.95 295.97-3.13 297.87-2.3 299.12-2.3L299.12-2.3Q301.77-2.3 304.17-3.43 306.57-4.55 306.57-8.2L306.57-8.2Q306.57-9.75 305.2-10.9 303.82-12.05 300.92-13.6L300.92-13.6 298.77-14.8Q295.27-16.8 293.3-19.1 291.32-21.4 291.32-25.15L291.32-25.15Q291.32-28.25 293.1-30.55 294.87-32.85 297.55-34.05 300.22-35.25 302.87-35.25L302.87-35.25ZM341.87-21.5L344.02-21.45Q345.07-21.45 345.97-21.55L345.97-21.55Q346.27-21.6 346.92-21.6L346.92-21.6Q347.62-21.6 347.97-21.55L347.97-21.55 349.12-21.45 349.27-22.95 349.42-25.35 349.52-30.25 349.62-34.1Q349.67-34.85 349.82-35.1 349.97-35.35 350.52-35.4L350.52-35.4Q351.02-35.4 353.32-35.7L353.32-35.7Q353.72-35.75 354.77-35.75L354.77-35.75Q356.37-35.75 357.42-35.6L357.42-35.6Q357.97-35.5 358.09-35.38 358.22-35.25 358.24-34.95 358.27-34.65 358.32-34.4L358.32-34.4Q358.32-33.6 358.17-31.7L358.17-31.7Q357.97-28.2 357.97-26.9L357.97-26.9Q357.97-26.25 357.67-22.75L357.67-22.75Q357.37-18.95 357.37-17.8L357.37-17.8 357.47-7.9Q357.47-2.3 357.67-1.05L357.67-1.05 357.67-0.95Q357.67-0.4 357.47-0.28 357.27-0.15 357.02-0.18 356.77-0.2 356.67-0.2L356.67-0.2Q356.27-0.3 355.67-0.3L355.67-0.3Q355.47-0.3 354.37-0.2L354.37-0.2Q352.97-0.05 349.87-0.05L349.87-0.05 349.77-0.05Q349.07-0.05 349.07-0.5L349.07-0.5Q349.07-1.45 349.04-4.25 349.02-7.05 348.87-8.35L348.87-8.35Q348.77-10.25 348.77-12.05L348.77-12.05Q348.72-12.8 348.72-14.35L348.72-14.35 347.27-14.35 345.12-14.3 344.22-14.25 343.22-14.3Q342.47-14.3 342.02-14.35L342.02-14.35 341.87-11.2Q341.72-9.45 341.72-6.65L341.72-6.65 341.72-4.1Q341.72-1.4 341.82-0.85L341.82-0.85Q341.92-0.25 341.64-0.13 341.37 0 340.99 0 340.62 0 340.47 0L340.47 0Q340.07-0.05 339.12-0.13 338.17-0.2 337.57-0.2L337.57-0.2 336.12-0.1Q335.77-0.05 333.52 0.1L333.52 0.1Q332.37 0.25 332.37-1.3L332.37-1.3 332.42-3.25 332.52-6.85Q332.52-7.95 332.57-8.9L332.57-8.9 332.62-14.7Q332.62-16.7 332.57-17.25L332.57-17.25Q332.42-18.4 332.42-20.25L332.42-20.25 332.47-23.3Q332.52-24.05 332.52-25.25L332.52-25.25Q332.52-26.65 332.82-31.05L332.82-31.05 332.97-34.5Q332.97-34.9 333.12-35.05 333.27-35.2 333.57-35.2L333.57-35.2 334.22-35.15Q334.87-35.05 335.92-35 336.97-34.95 337.97-34.95L337.97-34.95 340.27-35Q340.82-35.05 341.52-35.05L341.52-35.05 341.57-35.05Q341.97-35.05 341.97-34.5L341.97-34.5Q342.02-34.4 342.04-32.52 342.07-30.65 342.07-28.1L342.07-28.1Q342.07-26.5 341.97-23.8L341.97-23.8 341.87-21.5ZM385.27-33.25L385.27-32.7Q385.27-31.55 385.06-31.55L385.06-31.55Q384.77-31.55 384.39-31.63 384.02-31.7 383.47-31.7L383.47-31.7 375.47-31.7 369.27-31.75Q368.97-31.75 367.02-31.6L367.02-31.6 365.87-31.5 365.77-30.15Q365.72-29.4 365.72-27.8L365.72-27.8Q365.72-27 365.81-25.7L365.81-25.7Q365.92-24.5 365.92-23.95L365.92-23.95 365.92-21.95Q365.92-21.15 365.97-20.7L365.97-20.7Q366.42-20.65 367.31-20.65L367.31-20.65 369.31-20.65Q369.62-20.65 370.52-20.75L370.52-20.75Q371.81-20.85 372.77-20.85L372.77-20.85Q373.17-20.85 375.56-20.7L375.56-20.7 376.67-20.65Q377.06-20.65 377.81-20.73 378.56-20.8 379.27-20.8L379.27-20.8 380.92-20.75Q382.22-20.65 382.72-20.65L382.72-20.65Q383.27-20.65 383.47-20.7L383.47-20.7 383.77-20.75Q384.12-20.75 384.27-20.53 384.42-20.3 384.37-20.1L384.37-20.1Q384.31-19.75 384.31-19.23 384.31-18.7 384.27-18.3L384.27-18.3Q384.22-17.9 384.12-17.82 384.02-17.75 383.52-17.75L383.52-17.75 381.52-17.95Q377.77-18.3 376.62-18.3L376.62-18.3Q372.37-18.3 370.37-18.15L370.37-18.15Q369.56-18.05 368.62-18.05 367.67-18.05 367.42-18.05L367.42-18.05Q366.47-18.05 366.02-18.1L366.02-18.1 365.87-17.3Q365.77-16.4 365.77-15.7L365.77-15.7Q365.77-15.1 365.87-14.3L365.87-14.3Q365.97-13.5 365.97-12.9L365.97-12.9 366.02-6.95 365.97-4.45Q365.92-4 365.92-3.2L365.92-3.2Q366.56-3.15 367.81-3.15L367.81-3.15Q368.87-3.1 371.06-3.1L371.06-3.1 373.77-3.05Q374.62-3 376.37-3L376.37-3Q377.42-3 379.12-3.1L379.12-3.1 381.22-3.15Q382.42-3.15 383.22-3.1 384.02-3.05 384.42-3.05L384.42-3.05Q384.81-3.05 384.89-2.9 384.97-2.75 384.97-2.25L384.97-2.25Q384.97-1.9 384.92-1.53 384.87-1.15 384.87-0.7L384.87-0.7Q384.87-0.35 384.62-0.23 384.37-0.1 383.81-0.1L383.81-0.1Q383.27-0.1 382.92-0.15L382.92-0.15Q381.56-0.3 377.47-0.3L377.47-0.3Q374.97-0.3 373.87-0.25L373.87-0.25Q373.02-0.2 371.06-0.2L371.06-0.2 366.42-0.25Q365.62-0.3 364.52-0.3L364.52-0.3Q363.81-0.3 363.59-0.48 363.37-0.65 363.37-1.05L363.37-1.05 363.42-1.85Q363.47-2.05 363.47-2.3L363.47-2.3Q363.47-2.45 363.42-3.03 363.37-3.6 363.37-5.15L363.37-5.15Q363.37-6.65 363.27-10.05L363.27-10.05Q363.12-12.85 363.12-15.45L363.12-15.45Q363.12-16.55 363.37-21.8L363.37-21.8Q363.42-22.85 363.47-23.9 363.52-24.95 363.52-25.8L363.52-25.8Q363.52-31.6 363.37-33.45L363.37-33.45Q363.22-34.65 364.81-34.65L364.81-34.65Q365.22-34.65 366.12-34.55L366.12-34.55Q366.92-34.45 367.31-34.45L367.31-34.45 370.47-34.55Q373.87-34.75 375.72-34.75L375.72-34.75Q377.87-34.75 381.77-34.65L381.77-34.65Q383.02-34.6 384.42-34.6L384.42-34.6Q385.02-34.6 385.17-34.3 385.31-34 385.29-33.68 385.27-33.35 385.27-33.25L385.27-33.25ZM412.46-2.05Q413.81-0.7 413.81-0.2L413.81-0.2Q413.81-0.1 413.56 0.15L413.56 0.15Q413.11 0.45 411.31 0.45L411.31 0.45Q410.01 0.45 409.66 0.28 409.31 0.1 409.14-0.3 408.96-0.7 408.86-0.9L408.86-0.9Q408.71-1.2 407.64-2.63 406.56-4.05 406.01-4.8L406.01-4.8Q403.36-8.2 401.41-10.95L401.41-10.95Q400.21-12.65 396.96-16.8L396.96-16.8 396.16-17.8 392.71-22.1 392.51-20.1Q392.31-18.6 392.41-16.5L392.41-16.5Q392.56-15.1 392.61-9.25 392.66-3.4 392.66-0.7L392.66-0.7Q392.66 0.1 392.06 0.33 391.46 0.55 390.66 0.55L390.66 0.55Q390.31 0.55 390.21 0.25 390.11-0.05 390.09-0.4 390.06-0.75 390.06-0.85L390.06-0.85Q389.96-1.65 389.96-3.2L389.96-3.2Q389.96-4.2 390.01-4.7L390.01-4.7Q390.06-7.4 390.16-14.13 390.26-20.85 390.26-26.2L390.26-26.2Q390.26-31.95 390.11-32.9L390.11-32.9Q390.06-33.3 390.06-33.95L390.06-33.95Q390.06-34.7 390.29-34.9 390.51-35.1 390.96-35.1L390.96-35.1Q391.96-35.1 392.91-35.05L392.91-35.05 398.36-34.95Q401.36-34.95 404.61-33.9 407.86-32.85 407.86-30L407.86-30Q407.86-27.3 405.86-25.8 403.86-24.3 401.39-23.75 398.91-23.2 397.06-23.2L397.06-23.2Q396.41-23.2 396.36-23.25L396.36-23.25Q396.66-22.95 400.31-17.95L400.31-17.95Q411.31-3.2 412.46-2.05L412.46-2.05ZM392.56-25.25Q394.21-25.25 395.06-25.3L395.06-25.3Q397.96-25.4 399.56-25.7L399.56-25.7Q401.86-26.1 403.04-26.8 404.21-27.5 404.21-29L404.21-29Q404.21-30 403.16-30.73 402.11-31.45 400.64-31.83 399.16-32.2 398.06-32.2L398.06-32.2Q396.81-32.25 394.56-32.25L394.56-32.25 392.86-32.25 392.56-25.25ZM438.86-33.25L438.86-32.7Q438.86-31.55 438.66-31.55L438.66-31.55Q438.36-31.55 437.99-31.63 437.61-31.7 437.06-31.7L437.06-31.7 429.06-31.7 422.86-31.75Q422.56-31.75 420.61-31.6L420.61-31.6 419.46-31.5 419.36-30.15Q419.31-29.4 419.31-27.8L419.31-27.8Q419.31-27 419.41-25.7L419.41-25.7Q419.51-24.5 419.51-23.95L419.51-23.95 419.51-21.95Q419.51-21.15 419.56-20.7L419.56-20.7Q420.01-20.65 420.91-20.65L420.91-20.65 422.91-20.65Q423.21-20.65 424.11-20.75L424.11-20.75Q425.41-20.85 426.36-20.85L426.36-20.85Q426.76-20.85 429.16-20.7L429.16-20.7 430.26-20.65Q430.66-20.65 431.41-20.73 432.16-20.8 432.86-20.8L432.86-20.8 434.51-20.75Q435.81-20.65 436.31-20.65L436.31-20.65Q436.86-20.65 437.06-20.7L437.06-20.7 437.36-20.75Q437.71-20.75 437.86-20.53 438.01-20.3 437.96-20.1L437.96-20.1Q437.91-19.75 437.91-19.23 437.91-18.7 437.86-18.3L437.86-18.3Q437.81-17.9 437.71-17.82 437.61-17.75 437.11-17.75L437.11-17.75 435.11-17.95Q431.36-18.3 430.21-18.3L430.21-18.3Q425.96-18.3 423.96-18.15L423.96-18.15Q423.16-18.05 422.21-18.05 421.26-18.05 421.01-18.05L421.01-18.05Q420.06-18.05 419.61-18.1L419.61-18.1 419.46-17.3Q419.36-16.4 419.36-15.7L419.36-15.7Q419.36-15.1 419.46-14.3L419.46-14.3Q419.56-13.5 419.56-12.9L419.56-12.9 419.61-6.95 419.56-4.45Q419.51-4 419.51-3.2L419.51-3.2Q420.16-3.15 421.41-3.15L421.41-3.15Q422.46-3.1 424.66-3.1L424.66-3.1 427.36-3.05Q428.21-3 429.96-3L429.96-3Q431.01-3 432.71-3.1L432.71-3.1 434.81-3.15Q436.01-3.15 436.81-3.1 437.61-3.05 438.01-3.05L438.01-3.05Q438.41-3.05 438.49-2.9 438.56-2.75 438.56-2.25L438.56-2.25Q438.56-1.9 438.51-1.53 438.46-1.15 438.46-0.7L438.46-0.7Q438.46-0.35 438.21-0.23 437.96-0.1 437.41-0.1L437.41-0.1Q436.86-0.1 436.51-0.15L436.51-0.15Q435.16-0.3 431.06-0.3L431.06-0.3Q428.56-0.3 427.46-0.25L427.46-0.25Q426.61-0.2 424.66-0.2L424.66-0.2 420.01-0.25Q419.21-0.3 418.11-0.3L418.11-0.3Q417.41-0.3 417.19-0.48 416.96-0.65 416.96-1.05L416.96-1.05 417.01-1.85Q417.06-2.05 417.06-2.3L417.06-2.3Q417.06-2.45 417.01-3.03 416.96-3.6 416.96-5.15L416.96-5.15Q416.96-6.65 416.86-10.05L416.86-10.05Q416.71-12.85 416.71-15.45L416.71-15.45Q416.71-16.55 416.96-21.8L416.96-21.8Q417.01-22.85 417.06-23.9 417.11-24.95 417.11-25.8L417.11-25.8Q417.11-31.6 416.96-33.45L416.96-33.45Q416.81-34.65 418.41-34.65L418.41-34.65Q418.81-34.65 419.71-34.55L419.71-34.55Q420.51-34.45 420.91-34.45L420.91-34.45 424.06-34.55Q427.46-34.75 429.31-34.75L429.31-34.75Q431.46-34.75 435.36-34.65L435.36-34.65Q436.61-34.6 438.01-34.6L438.01-34.6Q438.61-34.6 438.76-34.3 438.91-34 438.89-33.68 438.86-33.35 438.86-33.25L438.86-33.25Z" opacity="1" transform="matrix(1,0,0,1,0,0)" fill="#efd9cc" class="slogan-text-1" data-fill-palette-color="secondary" id="text-1"></path></svg></g></svg></g></svg></g></svg></g><g transform="matrix(1,0,0,1,203.0378507594355,0)"><svg viewBox="0 0 81.86984465257407 93.27723370044885" height="93.27723370044885" width="81.86984465257407"><g><svg xmlns="http://www.w3.org/2000/svg" xmlns:xlink="http://www.w3.org/1999/xlink" version="1.1" x="0" y="0" viewBox="9.63963492950516 3.6803665458035804 78.85843385069312 89.84622597926497" enable-background="new 0 0 100 100" xml:space="preserve" height="93.27723370044885" width="81.86984465257407" class="icon-icon-0" data-fill-palette-color="accent" id="icon-0"><path d="M26.1 38c0 1.4-1.1 2.5-2.5 2.5-1.4 0-2.5-1.1-2.5-2.5 0-1.4 1.1-2.5 2.5-2.5C25 35.6 26.1 36.7 26.1 38zM52.2 19.7c-1.4 0-2.5 1.1-2.5 2.5 0 1.4 1.1 2.5 2.5 2.5 1.4 0 2.5-1.1 2.5-2.5C54.6 20.8 53.5 19.7 52.2 19.7zM69.6 32.4c-1.4 0-2.5 1.1-2.5 2.5s1.1 2.5 2.5 2.5 2.5-1.1 2.5-2.5S71 32.4 69.6 32.4zM81 14.6c-8.1-9.2-41.7-19.1-61.5 0C5 28.6 9.8 52.5 13.3 64.2c2.4 9.2 6.9 24.8 11 27.4 5.9 3.7 13.4 1.4 12.4-1.3-0.4-1.1-1.5-2.7-2.4-4.5-1-1.9 0.6-4.1 2.7-3.9 0.5 0.1 1.1 0.1 1.6 0.2 1.5 0.2 4.2 1.6 4.2 3.1l-0.1 2.4c0 2.8 1.3 4.8 4.2 4.8l7-0.1c3 0 5.1-2.1 5.1-5v-2.8c0-1.2 0.9-2.2 2.1-2.4 0.7-0.1 1.2-0.1 1.9-0.2 1.9-0.2 3.2 1.6 2.5 3.3-0.3 0.6-0.5 1.2-0.8 1.7-1.1 2.3 0.4 4.9 3.2 5.2 2.3 0.3 4.9 0.4 8.1 0 6-0.7 11-25.6 11-30.8 0 0 0 0 0 0C91 44 86.3 20.5 81 14.6zM34.8 38.3c0 4.6-3.7 8.3-8.3 8.3s-8.3-3.7-8.3-8.3 3.7-8.3 8.3-8.3S34.8 33.7 34.8 38.3zM59.8 25c0 5.7-4.6 10.3-10.3 10.3S39.2 30.7 39.2 25s4.6-10.3 10.3-10.3S59.8 19.4 59.8 25zM80.6 38c0 4.7-3.8 8.5-8.5 8.5-4.7 0-8.5-3.8-8.5-8.5s3.8-8.5 8.5-8.5C76.8 29.5 80.6 33.3 80.6 38zM28.3 60c0-6 9.5 0 21.3 0s21.3-9.4 21.3-3-9.5 14.7-21.3 14.7S28.3 66 28.3 60zM35 69.5c-1.3-7 4.4-11.9 4.5-11.9l-1-1.2c-0.3 0.2-6.5 5.5-5 13.4L35 69.5zM45.3 72.3c-1.5-1.3-0.3-8.3 1-12.9L44.8 59c-0.6 2-3.3 12.1-0.5 14.5L45.3 72.3zM53.4 57.5L52 58.3c2 5 4.3 12.9 3 14.7l1.2 1.2C58.6 70.9 54.3 59.7 53.4 57.5zM62.3 56.1l-1.4 0.8c2.4 4.1 5.3 10.6 4.2 12.2l1.3 0.9C68.5 66.9 63.3 57.8 62.3 56.1z" fill="#564840" data-fill-palette-color="accent"></path></svg></g></svg></g></svg></g></svg></g></svg></g><defs></defs></svg><rect width="320" height="360" fill="none" stroke="none" visibility="hidden"></rect></g></svg></g></svg>