<svg xmlns="http://www.w3.org/2000/svg" version="1.1" xmlns:xlink="http://www.w3.org/1999/xlink" xmlns:svgjs="http://svgjs.dev/svgjs" width="1500" height="1500" viewBox="0 0 1500 1500"><rect width="1500" height="1500" fill="#21232b"></rect><g transform="matrix(0.6666666666666666,0,0,0.6666666666666666,250.00017081513073,187.66666666666674)"><svg viewBox="0 0 320 360" data-background-color="#21232b" preserveAspectRatio="xMidYMid meet" height="1687" width="1500" xmlns="http://www.w3.org/2000/svg" xmlns:xlink="http://www.w3.org/1999/xlink"><g id="tight-bounds" transform="matrix(1,0,0,1,0.00005466084189720277,0)"><svg viewBox="0 0 320 360" height="360" width="320"><g><svg></svg></g><g><svg viewBox="0 0 320 360" height="360" width="320"><g><path transform="translate(-119.39272,-98.31927) scale(5.58313,5.58313)" d="M36.7 23.5c0-0.2 0.1-0.4 0.3-0.4 0.2 0 0.4 0.1 0.4 0.4 0.1 0 0.3 0 0.4-0.1 0.4 0 0.8-0.1 1.1 0 0.3 0.1 0.5 0.1 0.8 0.2 0.3 0.1 0.5 0 0.7-0.1 0.4-0.1 0.7-0.3 1.1-0.4 0.2-0.1 0.3-0.1 0.5-0.1 0.2-0.1 0.4-0.1 0.7-0.2 0.5-0.1 1-0.2 1.4-0.4 0.4-0.2 0.8-0.2 1.2-0.3 0.2 0 0.3-0.1 0.5-0.2 0.1 0 0.1-0.1 0.2-0.2 0.2-0.1 0.3-0.2 0.5-0.1 0.1 0.1 0.3 0.1 0.4 0h0.1c0.6 0 1.2-0.1 1.9 0 0.1 0 0.2 0 0.2 0 0.3-0.2 0.7-0.2 1.1-0.2 0.1 0 0.3 0 0.4 0h0.1c0.4 0 0.8 0 1.1 0.1 0.3 0 0.5 0.1 0.8 0.2 0.3 0 0.5 0 0.8 0.1 0.2 0 0.4 0 0.6 0 0.1 0 0.2 0 0.2 0 0.4 0.1 0.8 0.1 1.2 0.1 0.3 0.1 0.6 0.2 1 0.2 0.1 0 0.2 0 0.3 0 0.1 0 0.2 0.1 0.3 0.1l0.1 0.1c0.4 0 0.7 0.2 1.1 0.2 0.1 0 0.3 0 0.4 0.1 0.3 0.2 0.7 0.3 1.1 0.3 0.2 0 0.3 0.1 0.4 0.2 0.3 0.1 0.5 0.2 0.8 0.3 0.2 0.1 0.4 0 0.6 0.1 0.3 0.1 0.7 0.2 1 0.5 0.2 0.2 0.4 0.2 0.7 0.4 0.1 0 0.2 0.1 0.3 0.2 0.3 0.2 0.6 0.4 0.9 0.5 0.1 0 0.2 0.1 0.3 0.1 0.3 0.2 0.6 0.5 1 0.7 0.2 0.1 0.3 0.2 0.5 0.3h0.1c0.3 0.3 0.7 0.5 1 0.8 0.3 0.3 0.5 0.5 0.9 0.7 0 0 0 0 0 0.1 0.1 0.2 0.2 0.3 0.4 0.4 0.2 0.1 0.3 0.2 0.4 0.3 0.3 0.2 0.6 0.4 0.8 0.6 0.1 0.1 0.2 0.2 0.4 0.4 0.1 0.1 0.2 0.2 0.3 0.2 0.4 0.1 0.6 0.4 0.9 0.7 0.2 0.2 0.5 0.5 0.7 0.7 0.1 0.1 0.2 0.3 0.3 0.5 0.2 0.6 0.5 1.2 0.8 1.7 0 0 0 0.1 0.1 0.2v0.1c0.2 0.2 0.3 0.5 0.5 0.7 0.1 0.1 0.1 0.2 0.2 0.3 0.2 0.3 0.3 0.7 0.5 1 0.3 0.5 0.5 1 0.7 1.5v0.1c0.1 0.2 0.2 0.4 0.3 0.7 0 0.2 0.2 0.4 0.3 0.7 0.1 0.5 0.4 1 0.5 1.6 0 0.1 0.1 0.2 0.1 0.4 0.1 0.3 0.2 0.6 0.3 0.9 0 0.1 0.1 0.2 0.2 0.3 0.2 0.2 0.2 0.4 0.2 0.6-0.1 0.4 0 0.8 0.1 1.2 0 0.1 0 0.2 0 0.4 0.1 0.4 0.2 0.9 0.2 1.3 0 0.1 0 0.3 0 0.4 0 0.3 0.1 0.6 0.3 0.9 0 0.1 0.1 0.1 0.1 0.1 0.1 0.1 0.2 0.3 0.3 0.4 0.1 0.1 0.1 0.1 0.2 0.2 0.2 0.2 0.3 0.4 0.3 0.7 0 0.1-0.1 0.3-0.1 0.4 0 0.1 0 0.3 0.1 0.4 0.1 0.1 0.1 0.2 0.1 0.3 0 0.1-0.1 0.2-0.2 0.2v0c-0.1 0.3-0.5 0.4-0.6 0.7-0.1 0.4-0.2 0.8-0.3 1.2-0.1 0.3-0.1 0.5-0.1 0.8 0 0.3-0.1 0.5-0.1 0.8-0.1 0.4-0.2 0.8-0.3 1.2 0 0.2-0.1 0.4-0.1 0.6 0.1 0.1 0.2 0.2 0.3 0.2 0.2 0.2 0.4 0.4 0.6 0.6 0.1 0.1 0.1 0.2 0 0.2-0.1 0.1-0.2 0.1-0.3 0.1-0.1-0.1-0.3-0.2-0.4-0.2-0.1-0.1-0.3-0.2-0.5-0.1 0 0.2-0.1 0.4-0.1 0.5-0.1 0.2-0.2 0.5-0.2 0.7-0.1 0.4-0.3 0.7-0.4 1.1-0.2 0.5-0.4 0.9-0.6 1.3-0.1 0.2-0.2 0.4-0.3 0.6v0c0 0.3-0.3 0.6-0.4 0.9-0.2 0.4-0.4 0.8-0.6 1.3-0.1 0.2-0.2 0.4-0.3 0.5-0.2 0.5-0.4 0.9-0.7 1.3-0.2 0.3-0.4 0.5-0.6 0.6-0.2 0.2-0.4 0.4-0.6 0.6-0.1 0.1-0.2 0.2-0.3 0.3-0.1 0.1-0.1 0.1-0.2 0.2-0.2 0.3-0.5 0.5-0.7 0.8-0.2 0.2-0.3 0.4-0.6 0.6-0.2 0.2-0.4 0.5-0.7 0.6-0.1 0.1-0.2 0.3-0.3 0.4-0.1 0.1-0.2 0.3-0.3 0.4 0 0.2 0.1 0.4 0.1 0.5 0 0.3-0.3 0.4-0.5 0.2-0.3-0.2-0.3-0.2-0.6 0-0.3 0.2-0.6 0.5-1 0.6-0.1 0-0.1 0.1-0.2 0.1-0.2 0.1-0.3 0.3-0.5 0.4-0.2 0.2-0.5 0.3-0.7 0.5-0.1 0.1-0.2 0.1-0.3 0.2-0.3 0.2-0.6 0.3-0.9 0.6-0.1 0.1-0.2 0.1-0.3 0.2 0 0.1 0 0.1 0 0.2 0 0.2-0.2 0.4-0.5 0.3-0.3-0.1-0.5 0-0.8 0-0.3 0.1-0.6 0.3-0.9 0.4-0.1 0-0.2 0.1-0.3 0.2-0.3 0.2-0.6 0.3-0.9 0.4-0.2 0-0.4 0.2-0.6 0.2-0.1 0-0.2 0.1-0.3 0.1h-0.1c-0.4 0.3-0.8 0.5-1.2 0.8-0.1 0-0.1 0.1-0.2 0.2-0.1 0.2-0.2 0.3-0.4 0.3-0.5 0-0.7 0.4-0.6 0.8 0 0.1 0.1 0.2 0.1 0.3 0.1 0.2 0 0.4-0.1 0.5-0.1 0.1-0.4 0.1-0.5-0.1-0.2-0.2-0.3-0.4-0.4-0.7-0.1-0.2-0.3-0.4-0.5-0.5-0.2-0.1-0.4-0.1-0.6 0-0.1 0-0.1 0.1-0.2 0.1-0.2 0.2-0.5 0.3-0.8 0.2-0.1 0-0.3 0-0.3 0.1-0.1 0.1-0.1 0.3 0 0.4 0.2 0.2 0.1 0.4 0.1 0.7 0 0.4-0.3 0.6-0.7 0.4-0.1-0.1-0.2-0.1-0.3-0.2-0.1 0-0.1-0.1-0.1-0.2-0.1-0.1-0.1-0.3-0.2-0.5-0.2 0.1-0.4 0.1-0.6 0.2-0.1 0-0.2 0.1-0.3 0.1-0.3 0-0.4 0-0.5-0.3-0.1-0.3-0.3-0.3-0.5-0.4-0.4-0.1-0.9-0.1-1.3-0.3h-0.1c-0.4-0.3-0.8-0.3-1.3-0.3-0.3 0-0.6 0.1-0.9 0.1-0.3 0-0.5 0.1-0.7 0.3-0.1 0.1-0.2 0.2-0.3 0.2-0.1-0.1-0.1-0.2-0.2-0.3v-0.1c0-0.1-0.1-0.2-0.2-0.1-0.2 0.1-0.4-0.1-0.6-0.2-0.1-0.1-0.3-0.3-0.3-0.5-0.1-0.1-0.2-0.2-0.3-0.2-0.2 0-0.5-0.1-0.7-0.1-0.1 0-0.2 0-0.2-0.1-0.1-0.1-0.2-0.1-0.4-0.1-0.1 0-0.1-0.1-0.2-0.1 0.2 0.2 0.3 0.4 0.4 0.6 0 0.1 0.1 0.1 0.1 0.2 0.1 0.2 0 0.3-0.3 0.3-0.2 0-0.2 0-0.3 0.1 0 0.2 0 0.3 0 0.5 0 0.1 0 0.2-0.2 0.3 0 0-0.1 0-0.1 0.1-0.1 0.1-0.1 0.2 0 0.3 0.3 0.2 0.5 0.3 0.8 0.4 0.3 0 0.3 0.2 0.4 0.4 0.1 0.2 0 0.3-0.1 0.5-0.2 0.2-0.4 0.4-0.6 0.6-0.3 0.1-0.5 0.4-0.8 0.4-0.2 0-0.4-0.1-0.5-0.3-0.1-0.5-0.1-0.9 0.1-1.4 0-0.1 0.1-0.2 0-0.3-0.9 0-0.9-0.2-0.9-0.3 0-0.2 0.1-0.3 0.1-0.5 0.1-0.2 0-0.3-0.3-0.4-0.1 0-0.2 0-0.3 0-0.1 0-0.1-0.1-0.3-0.1 0.2-0.1 0.3-0.1 0.5-0.2-0.1-0.4-0.2-0.7-0.5-0.9-0.1-0.1-0.2-0.2-0.2-0.4 0-0.3-0.2-0.5-0.3-0.7-0.2-0.3-0.6-0.4-0.9-0.4-0.3-0.1-0.5-0.1-0.8-0.2-0.3-0.1-0.6-0.4-0.9-0.5-0.1-0.1-0.2-0.2-0.4-0.3-0.4-0.2-0.7-0.5-1-0.8-0.2-0.1-0.3-0.3-0.5-0.4-0.2-0.2-0.3-0.4-0.5-0.5-0.2-0.2-0.4-0.4-0.7-0.6-0.3-0.2-0.5-0.5-0.8-0.8-0.2-0.3-0.5-0.5-0.8-0.7-0.1 0-0.2 0-0.3 0-0.1 0-0.2 0.1-0.3 0.1-0.3 0.1-0.5 0.3-0.8 0.4 0.1-0.1 0.1-0.1 0-0.3-0.1-0.1-0.2-0.2-0.3-0.2-0.2 0-0.4 0-0.6 0-0.4 0-0.8 0.1-1.2 0.1-0.3 0-0.7 0.1-1 0.2 0.1 0.2 0.1 0.3 0.2 0.5-0.2 0.1-0.4 0.1-0.6 0.1-0.1 0-0.3 0.1-0.4 0.2-0.1 0-0.1 0.1-0.2 0-0.2-0.1-0.4 0-0.6 0.1h-0.1c0 0 0-0.1 0.1-0.1 0.1-0.1 0.2-0.2 0.3-0.3 0.1-0.1 0.2-0.1 0.4-0.2-0.1-0.1-0.1-0.2-0.1-0.2-0.1-0.1-0.2-0.1-0.3 0-0.1 0.1-0.2 0.2-0.3 0.3-0.1 0.1-0.2 0.1-0.3 0-0.1-0.1-0.1-0.2 0-0.3 0-0.1 0.1-0.2 0.2-0.3 0.1-0.1 0.1-0.2 0.2-0.3-0.2-0.2-0.3-0.4-0.5-0.5-0.3-0.2-0.6-0.5-0.8-0.8-0.2-0.4-0.5-0.7-0.9-0.9-0.1-0.1-0.2-0.2-0.3-0.3-0.1-0.1-0.1-0.1-0.2-0.2-0.3 0.1-0.5 0.3-0.8 0.4-0.1 0-0.1 0.1-0.2 0.2-0.1 0.2-0.3 0.2-0.5 0.2-0.1 0-0.2-0.1-0.1-0.2 0.1-0.2 0.2-0.4 0.5-0.3 0 0 0.1 0 0.1-0.1 0.2-0.2 0.4-0.5 0.7-0.7-0.1-0.3-0.3-0.5-0.4-0.7-0.1-0.1-0.1-0.2-0.1-0.4 0-0.1 0-0.1-0.1-0.2 0 0-0.1 0-0.2 0.1-0.1 0.1-0.3 0.2-0.5 0 0-0.1 0-0.2 0.1-0.3l0.1-0.1c0.3-0.1 0.3-0.4 0.3-0.7v-0.1c-0.1-0.2-0.1-0.3 0.1-0.5 0.3-0.2 0.6-0.6 0.7-0.9 0.1-0.2 0.3-0.3 0.5-0.5 0.2-0.2 0.4-0.4 0.5-0.7h0.1c0.4 0.1 0.5-0.2 0.7-0.5 0-0.1 0-0.2 0.1-0.2 0.2-0.2 0.2-0.4 0.1-0.7 0-0.1-0.1-0.3-0.1-0.4 0-0.1 0-0.1-0.1-0.2-0.3-0.2-0.3-0.4 0-0.6 0.2-0.1 0.2-0.3 0.3-0.4 0.1-0.2 0.1-0.4 0.1-0.7-0.1-0.3-0.1-0.7-0.2-1-0.1-0.4-0.2-0.9-0.3-1.3 0-0.1 0-0.1 0-0.2 0-0.3 0-0.5-0.1-0.8-0.1-0.1-0.1-0.3-0.1-0.4-0.1-0.3-0.2-0.5-0.5-0.6-0.3-0.2-0.7-0.3-1-0.5-0.1-0.1-0.2 0-0.3 0.1-0.1 0.2-0.3 0.4-0.4 0.6-0.1 0.1-0.2 0.3-0.3 0.5-0.2 0.2-0.6 0.4-0.9 0.1-0.1-0.2-0.2-0.3 0-0.5 0.2-0.3 0.4-0.6 0.7-0.8 0.1-0.1 0.2-0.3 0.3-0.4 0.1-0.2 0.1-0.4 0.1-0.6-0.1-0.4-0.2-0.8-0.2-1.3 0-0.5 0-0.9 0.1-1.4 0.1-0.2 0.1-0.5 0.2-0.7 0-0.1 0.1-0.3 0.2-0.4 0.2-0.2 0.4-0.4 0.5-0.7 0.1-0.3 0.3-0.6 0.3-0.9 0-0.1 0.1-0.2 0.1-0.3 0-0.1 0.1-0.3 0.1-0.4-0.1-0.3 0-0.5 0.1-0.7 0.1-0.2 0.2-0.5 0.3-0.7 0.2-0.4 0.2-0.9 0.6-1.3 0.1-0.2 0.2-0.4 0.3-0.6 0.1-0.4 0.3-0.7 0.5-1 0.1-0.1 0.1-0.1 0.1-0.2 0.1-0.3 0.3-0.6 0.5-0.9 0.2-0.3 0.2-0.6 0.3-0.9 0-0.1 0-0.2 0.1-0.3 0.3-0.3 0.2-0.7 0.1-1.1-0.2-0.5-0.3-1-0.2-1.5 0-0.1 0-0.2 0.1-0.2 0.1-0.2 0.1-0.3 0.2-0.5v-0.1c0.2-0.2 0.4-0.5 0.7-0.6 0.4-0.2 0.8-0.3 1.3-0.4 0.4 0 0.8-0.2 1.1-0.6 0-0.1 0.1-0.1 0.2-0.2l0.1-0.1c0.1-0.2 0.2-0.3 0.3-0.4 0.2-0.2 0.4-0.5 0.6-0.7 0.2-0.2 0.4-0.5 0.7-0.8l0.1-0.1c0.2-0.2 0.4-0.4 0.6-0.5 0.2-0.2 0.4-0.4 0.6-0.6 0.2-0.2 0.3-0.4 0.5-0.6 0.2-0.1 0.4-0.3 0.6-0.5 0.2-0.2 0.4-0.4 0.5-0.5 0.2-0.2 0.5-0.4 0.7-0.5 0.2-0.1 0.4-0.2 0.5-0.5 0.1-0.3 0.2-0.5 0.3-0.8 0-0.2 0.1-0.4 0.2-0.6 0.1 0 0.2 0 0.4-0.1-0.1-0.1-0.2-0.1-0.2-0.2 0-0.1 0.1-0.2 0.1-0.2 0-0.1 0.1-0.2 0.1-0.3 0 0 0.1 0 0.1-0.1 0 0 0.1 0 0.1-0.1-0.2 0.1-0.3 0-0.4-0.1 0.1 0.1 0.2 0.1 0.4 0.2 0 0 0.1 0 0.1-0.1 0-0.1 0-0.2 0-0.2 0 0-0.1 0-0.2 0-0.1 0-0.2 0.1-0.3 0.1zM54 70.5c0-0.1-0.1-0.1-0.1-0.2-0.1-0.2 0-0.3 0.1-0.4 0.1-0.1 0.2-0.1 0.4-0.1 0.2 0.1 0.3 0.2 0.3 0.4 0 0.1 0 0.3 0 0.4 0.1 0.4 0.1 0.4 0.5 0.4 0.2 0 0.4 0 0.6 0 0.4-0.1 0.8-0.3 1.2-0.4 0.4-0.1 0.8-0.2 1.2-0.3 0.1 0 0.2 0 0.4 0 0.4 0.1 0.7 0 1-0.2 0.1-0.1 0.3-0.1 0.4-0.2 0.2-0.1 0.4-0.1 0.6-0.2 0.5-0.3 1-0.5 1.4-0.8 0.3-0.2 0.6-0.4 0.9-0.6 0.3-0.2 0.6-0.4 0.9-0.6 0.2-0.1 0.5-0.3 0.7-0.5 0.4-0.3 0.7-0.6 1.1-0.8 0.2-0.1 0.3-0.2 0.4-0.3 0.2-0.1 0.3-0.3 0.5-0.4 0.1-0.1 0.2-0.2 0.4-0.3 0.1-0.1 0.1-0.1 0.1-0.2 0.3-0.2 0.6-0.6 0.8-0.9 0.2-0.2 0.4-0.4 0.6-0.7 0.3-0.3 0.5-0.7 0.8-1.1 0.2-0.2 0.4-0.5 0.5-0.7 0.2-0.4 0.4-0.8 0.7-1.1v-0.1c0.2-0.4 0.4-0.8 0.6-1.2 0.3-0.5 0.5-1.1 0.8-1.6 0.1-0.2 0.2-0.4 0.2-0.6 0.2-0.4 0.3-0.8 0.4-1.2 0-0.1 0-0.1 0.1-0.2 0.3-0.6 0.5-1.2 0.6-1.9 0.1-0.4 0.2-0.8 0.3-1.2 0.2-0.6 0.2-1.1 0.3-1.7 0.1-0.4 0.1-0.9 0.1-1.3 0.1-0.6 0.1-1.3 0-1.9 0-0.5-0.1-1.1-0.1-1.6 0-0.5-0.1-0.9-0.2-1.4-0.1-0.5-0.2-0.9-0.3-1.4-0.2-0.4-0.3-0.8-0.4-1.3-0.1-0.4-0.3-0.7-0.3-1.1 0-0.3-0.1-0.6-0.4-0.7-0.3-0.1-0.5-0.2-0.8-0.4-0.6-0.4-0.9-0.9-0.8-1.5 0-0.3 0.1-0.7 0.2-1 0.1-0.3 0.2-0.6 0-0.8-0.1-0.3-0.3-0.5-0.4-0.7-0.2-0.3-0.3-0.5-0.5-0.7-0.2-0.4-0.4-0.8-0.7-1.1-0.4-0.5-0.7-1-1.2-1.4l-0.1-0.1c-0.3-0.4-0.6-0.8-1-1.1-0.2-0.2-0.4-0.4-0.6-0.5-0.1-0.1-0.2-0.2-0.4-0.3-0.3-0.2-0.6-0.3-0.8-0.5-0.3-0.3-0.7-0.5-1-0.7 0 0-0.1 0-0.1-0.1-0.4-0.2-0.7-0.3-1.1-0.5-0.4-0.2-0.8-0.3-1.2-0.3-0.1 0-0.1 0-0.2 0-0.1-0.1-0.3-0.1-0.4-0.1-0.1 0-0.1 0-0.2 0-0.2-0.1-0.5 0-0.7 0-0.4 0.1-0.8 0.1-1.2-0.1-0.5-0.2-0.9-0.4-1.3-0.6-0.3-0.2-0.5-0.4-0.8-0.6-0.6-0.5-1.2-1.1-1.9-1.6 0.1-0.5-0.1-0.6-0.5-0.6-0.2 0-0.4 0.1-0.6 0.2-0.1 0.1-0.1 0.1-0.2 0.2-0.3 0.2-0.5 0.5-0.8 0.7-0.5 0.3-0.7 0.2-1.1 0-0.1-0.1-0.2-0.2-0.3-0.3-0.2-0.2-0.4-0.5-0.5-0.7-0.2-0.4-0.6-0.4-1-0.4-0.2 0-0.5 0.1-0.7 0.1-0.4 0-0.8 0.2-1 0.5-0.2 0.3-0.4 0.6-0.7 0.9-0.1 0.1-0.3 0.2-0.4 0.4-0.2 0.2-0.4 0.2-0.6 0-0.1-0.1-0.2-0.1-0.3-0.2-0.1 0.1-0.2 0.2-0.2 0.3-0.1 0.2-0.2 0.4-0.3 0.7-0.1 0.3-0.3 0.6-0.5 0.8-0.1 0.1-0.1 0.1-0.2 0.2-0.1 0.2-0.4 0.3-0.6 0.3-0.2 0.2-0.4 0.5-0.5 0.7-0.1 0.2-0.2 0.4-0.3 0.7-0.1 0.1-0.1 0.3-0.2 0.4-0.1 0.2-0.1 0.3-0.1 0.5 0.1 0.3-0.1 0.4-0.4 0.5-0.2 0-0.2 0-0.3 0.2 0 0.3 0.1 0.5 0.2 0.8 0.1 0.1 0.2 0.3 0.2 0.4 0 0.2 0.1 0.3 0.3 0.4 0.1 0.1 0.2 0.2 0.3 0.2 0.1 0 0.1 0.1 0.2 0.1 0.1 0.1 0.2 0 0.2-0.1 0.1-0.3 0.2-0.6 0.2-0.9 0.1-0.4 0.1-0.7 0.2-1.1 0.1-0.2 0.2-0.3 0.3-0.4 0 0 0.1 0 0.2 0v0.1c-0.1 0.5-0.3 1.1-0.4 1.6-0.1 0.2-0.1 0.4-0.2 0.6 0 0.1-0.1 0.2-0.2 0.2-0.2 0.1-0.4 0.2-0.6 0.2-0.1 0-0.2 0-0.3 0-0.2-0.1-0.4-0.3-0.6-0.4-0.1-0.1-0.2-0.2-0.3-0.3-0.1-0.2-0.2-0.4-0.3-0.6-0.1-0.2-0.2-0.3-0.4-0.4-0.1-0.1-0.2-0.1-0.3-0.2-0.2-0.2-0.4-0.3-0.7-0.3-0.1 0-0.3 0-0.4 0-0.1 0-0.3 0.1-0.4 0.2-0.2 0.1-0.3 0.1-0.5 0-0.5-0.2-1-0.1-1.5 0.1-0.2 0.1-0.4 0.2-0.6 0.2-0.5 0-0.9 0-1.4 0-0.5 0-0.9-0.1-1.4-0.2-0.2 0-0.4 0-0.6 0-0.4 0.1-0.5 0.4-0.4 0.8 0.1 0.4 0.2 0.9 0.2 1.3 0 0.3 0 0.6 0 0.9 0 0.2 0 0.3 0 0.5 0 0.3-0.1 0.6-0.1 0.9-0.1 0.6-0.4 1.1-0.8 1.5-0.3 0.3-0.7 0.6-1.1 0.7-0.2 0.1-0.4 0.2-0.7 0.3-0.5 0.2-0.9 0.6-1.2 1.1-0.1 0.2-0.2 0.4-0.3 0.6-0.2 0.3-0.3 0.5-0.5 0.8-0.1 0.2-0.3 0.4-0.4 0.6-0.1 0.2-0.3 0.3-0.3 0.5-0.2 0.4-0.3 0.8-0.5 1.2-0.1 0.2-0.1 0.5-0.2 0.7-0.2 0.4-0.2 0.8-0.2 1.3 0 0.1 0 0.2 0 0.4 0 0.5-0.1 1.1-0.1 1.6 0 0.5 0 1 0.1 1.5 0 0.2 0 0.5 0 0.7 0 0.4 0.1 0.9 0.1 1.3 0 0.4 0 0.9 0.2 1.3v0.1c0.1 0.4 0.1 0.8 0.2 1.2 0 0.1 0 0.2 0.1 0.3 0.2 0.6 0.3 1.1 0.5 1.7 0.1 0.4 0.3 0.8 0.4 1.2 0.1 0.4 0.5 0.8 0.6 1.3v0c0.3 0.6 0.6 1.2 1 1.8 0.1 0.2 0.3 0.4 0.4 0.6 0.2 0.3 0.3 0.6 0.5 0.8 0.1 0.2 0.3 0.4 0.4 0.5 0.1 0.2 0.2 0.4 0.4 0.6 0.2 0.2 0.4 0.5 0.6 0.7 0.3 0.5 0.7 0.9 1.1 1.2 0.2 0.2 0.4 0.3 0.6 0.5 0.1 0.1 0.2 0.1 0.2 0.2 0.1 0.1 0.2 0.2 0.4 0.3 0.8 0.4 1.4 1 2.1 1.6 0.3 0.3 0.6 0.6 1 0.8 0.4 0.3 0.7 0.6 1.2 0.7 0 0 0.1 0 0.1 0.1 0.2 0.2 0.5 0.3 0.7 0.4 0.4 0.2 0.9 0.4 1.3 0.6 0.1 0.1 0.3 0.1 0.4 0.2 0.3 0.1 0.6 0.2 0.9 0.3 0.3 0.1 0.5 0.2 0.8 0.2h0.1c0.2 0.1 0.3 0.1 0.5 0 0.1 0 0.2 0 0.2 0.1 0 0.1 0.1 0.1 0.2 0.1 0.1 0 0.2 0 0.4 0 0.1-0.1 0.1-0.2 0.2-0.4 0.1 0.1 0.2 0.1 0.2 0.1 0.1 0.2 0.3 0.2 0.5 0.2h0.1c0.2 0 0.3 0 0.4-0.1 0-0.1 0.2-0.1 0.3-0.1 0.3 0.1 0.6 0.1 0.9 0.2 0.2 0.1 0.5 0.1 0.6-0.1 0.1-0.1 0.2-0.2 0.4-0.1 0.2 0.1 0.3 0.1 0.5 0 0.1 0 0.2 0 0.2 0 0.3 0.1 0.5 0.1 0.8 0.2 0.4 0.1 0.4 0.1 0.7-0.2 0.1-0.1 0.3-0.1 0.4 0 0.1 0.2 0.1 0.3 0.1 0.5 0.1 0 0.1 0 0.2-0.1 0-0.2 0.1-0.2 0.3-0.3 0.1 0.1 0.1 0.1 0.2 0.1 0.2 0.2 0.3 0.2 0.4-0.1 0-0.1 0-0.2 0.1-0.2 0.1 0 0.2 0.1 0.2 0.1 0.1 0.2 0.3 0.3 0.4 0.5 0.2 0.2 0.5 0.2 0.6 0 0.1-0.1 0.2-0.1 0.3-0.1 0-0.1 0-0.2 0-0.3 0.3 0.2 0.2 0.2 0.1 0.2zM37.4 23.8c0.3 0.1 0.5 0.1 0.6-0.1-0.2 0.1-0.4-0.1-0.6 0.1z" fill="#f4f3f0" fill-rule="nonzero" stroke="none" stroke-width="1" stroke-linecap="butt" stroke-linejoin="miter" stroke-miterlimit="10" stroke-dasharray="" stroke-dashoffset="0" font-family="none" font-weight="none" font-size="none" text-anchor="none" style="mix-blend-mode: normal" data-fill-palette-color="tertiary"></path></g><g transform="matrix(1,0,0,1,64,147.1919735586899)"><svg viewBox="0 0 192 65.61605288262018" height="65.61605288262018" width="192"><g><svg viewBox="0 0 318.4640709791755 108.83518397179212" height="65.61605288262018" width="192"><g><rect width="4.96166102558263" height="79.1457018029313" x="204.98864142822677" y="14.84474108443041" fill="#f4f3f0" opacity="1" stroke-width="0" stroke="transparent" fill-opacity="1" class="rect-qz-0" data-fill-palette-color="primary" rx="1%" id="qz-0" data-palette-color="#f4f3f0"></rect></g><g transform="matrix(1,0,0,1,0,15.041620939661577)"><svg viewBox="0 0 192 78.75194209246897" height="78.75194209246897" width="192"><g id="textblocktransform"><svg viewBox="0 0 192 78.75194209246897" height="78.75194209246897" width="192" id="textblock"><g><svg viewBox="0 0 192 55.01889827100925" height="55.01889827100925" width="192"><g transform="matrix(1,0,0,1,0,0)"><svg width="192" viewBox="4.08 -39.11 179.15999999999997 52.199999999999996" height="55.01889827100925" data-palette-color="#f4f3f0"><g class="wordmark-text-0" data-fill-palette-color="primary" id="text-0"><path d="M9.99-18.46L9.99-4.76Q10.6-4.47 11.29-4.27 11.99-4.08 12.65-3.96 13.31-3.83 13.92-3.78 14.53-3.74 14.97-3.74L14.97-3.74Q16.85-3.74 18.36-4.48 19.87-5.22 20.95-6.51 22.02-7.79 22.6-9.5 23.17-11.21 23.17-13.16L23.17-13.16Q23.17-14.99 22.69-16.58 22.22-18.16 21.36-19.34 20.51-20.51 19.29-21.18 18.07-21.85 16.6-21.85L16.6-21.85Q14.84-21.85 13.15-20.91 11.45-19.97 9.99-18.46L9.99-18.46ZM8.81-25.88L9.69-21.53Q10.57-22.36 11.6-23.22 12.62-24.07 13.81-24.77 14.99-25.46 16.35-25.92 17.7-26.37 19.24-26.37L19.24-26.37Q21.61-26.37 23.47-25.33 25.34-24.29 26.64-22.57 27.93-20.85 28.63-18.62 29.32-16.38 29.32-14.01L29.32-14.01Q29.32-10.89 28.17-8.23 27.03-5.57 25.05-3.63 23.07-1.68 20.41-0.6 17.75 0.49 14.75 0.49L14.75 0.49Q14.16 0.49 13.51 0.45 12.87 0.42 12.24 0.34 11.62 0.27 11.04 0.16 10.45 0.05 9.99-0.1L9.99-0.1 9.99 13.09 4.08 13.09 4.08-25.88 8.81-25.88ZM49.88-3.81L49.88-3.81Q49.24-3.27 48.35-2.53 47.46-1.78 46.37-1.11 45.29-0.44 44 0.02 42.72 0.49 41.31 0.49L41.31 0.49Q39.87 0.49 38.63-0.04 37.4-0.56 36.48-1.5 35.57-2.44 35.04-3.75 34.52-5.05 34.52-6.64L34.52-6.64Q34.52-8.3 35.19-9.89 35.86-11.47 37.44-12.72 39.01-13.96 41.6-14.73 44.19-15.5 48-15.5L48-15.5 49.78-15.5 49.78-17.5Q49.78-18.58 49.41-19.43 49.05-20.29 48.39-20.9 47.73-21.51 46.81-21.83 45.9-22.14 44.77-22.14L44.77-22.14Q43.89-22.14 42.89-21.94 41.89-21.73 40.92-21.36 39.94-21 39.01-20.5 38.08-20 37.35-19.41L37.35-19.41 36.91-19.65 35.79-23.75Q38.74-25.29 41.28-25.83 43.82-26.37 46.04-26.37L46.04-26.37Q48.34-26.37 50.13-25.9 51.93-25.44 53.17-24.48 54.42-23.51 55.06-22.03 55.71-20.56 55.71-18.53L55.71-18.53 55.71-6.57Q55.71-6.2 55.77-5.76 55.83-5.32 56.02-4.93 56.2-4.54 56.55-4.27 56.91-4 57.49-4L57.49-4Q57.83-4 58.32-4.1 58.81-4.2 59.3-4.42L59.3-4.42 59.3-1.49Q57.98-0.59 56.67-0.05 55.37 0.49 54.12 0.49L54.12 0.49Q53.15 0.49 52.44 0.12 51.73-0.24 51.24-0.84 50.75-1.44 50.42-2.21 50.1-2.98 49.88-3.81ZM49.78-6.96L49.78-12.62 48.24-12.62Q45.7-12.62 44.15-12.27 42.6-11.91 41.75-11.29 40.89-10.67 40.61-9.85 40.33-9.03 40.33-8.08L40.33-8.08Q40.33-7.08 40.62-6.32 40.92-5.57 41.42-5.05 41.92-4.54 42.6-4.27 43.28-4 44.06-4L44.06-4Q44.65-4 45.29-4.14 45.92-4.27 46.62-4.61 47.31-4.96 48.09-5.52 48.87-6.08 49.78-6.96L49.78-6.96ZM66.77-7.15L66.77-21.66 61.57-21.66 62.01-24.44Q63.94-24.93 65.1-25.54 66.25-26.15 67.02-27.04 67.79-27.93 68.37-29.21 68.94-30.49 69.7-32.32L69.7-32.32 72.53-32.32 72.53-25.88 81.83-25.88 80.78-21.66 72.7-21.66 72.7-8.33Q72.7-7.13 73.04-6.31 73.38-5.49 74.02-4.98 74.65-4.47 75.54-4.24 76.44-4 77.56-4L77.56-4Q78.63-4 79.69-4.2 80.76-4.39 81.71-4.76L81.71-4.76 81.71-1.78Q80.05-0.66 78.16-0.09 76.26 0.49 74.34 0.49L74.34 0.49Q70.65 0.49 68.71-1.51 66.77-3.52 66.77-7.15L66.77-7.15ZM107.1-5.32L107.1-2.37Q105.36-0.98 103.24-0.24 101.12 0.49 98.67 0.49L98.67 0.49Q95.94 0.49 93.74-0.43 91.55-1.34 90.01-2.97 88.47-4.59 87.64-6.85 86.81-9.11 86.81-11.82L86.81-11.82Q86.81-15.01 87.93-17.69 89.06-20.36 91-22.29 92.94-24.22 95.57-25.29 98.21-26.37 101.24-26.37L101.24-26.37Q101.9-26.37 102.65-26.31 103.41-26.25 104.2-26.12 105-26 105.77-25.79 106.54-25.59 107.19-25.29L107.19-25.29 106.14-20.75 105.63-20.51Q105.19-20.83 104.59-21.13 104-21.44 103.31-21.66 102.63-21.88 101.9-22.01 101.16-22.14 100.46-22.14L100.46-22.14Q98.89-22.14 97.54-21.53 96.18-20.92 95.17-19.75 94.16-18.58 93.57-16.88 92.99-15.19 92.99-13.04L92.99-13.04Q92.99-10.79 93.62-9.11 94.26-7.42 95.38-6.29 96.5-5.15 98.04-4.58 99.58-4 101.38-4L101.38-4Q102.51-4 103.95-4.27 105.39-4.54 107.1-5.32L107.1-5.32ZM113.81 0L113.81-39.11 119.72-39.11 119.72-21.7Q120.62-22.51 121.71-23.33 122.79-24.15 124-24.83 125.21-25.51 126.55-25.94 127.9-26.37 129.34-26.37L129.34-26.37Q131.09-26.37 132.53-25.71 133.97-25.05 135-23.85 136.03-22.66 136.59-20.97 137.15-19.29 137.15-17.24L137.15-17.24 137.15 0 131.22 0 131.22-16.58Q131.22-17.9 130.85-18.88 130.48-19.87 129.85-20.53 129.21-21.19 128.32-21.52 127.43-21.85 126.41-21.85L126.41-21.85Q124.6-21.85 122.99-20.92 121.38-20 119.72-18.48L119.72-18.48 119.72 0 113.81 0Z" fill="#f4f3f0" data-fill-palette-color="primary"></path><path d="M151.84 0L151.84-25.88 157.78-25.88 157.78 0 151.84 0ZM154.8-30.98L154.8-30.98Q154.02-30.98 153.37-31.24 152.72-31.49 152.25-31.93 151.77-32.37 151.52-32.98 151.26-33.59 151.26-34.3L151.26-34.3Q151.26-35.03 151.54-35.66 151.82-36.28 152.32-36.76 152.82-37.23 153.49-37.5 154.16-37.77 154.95-37.77L154.95-37.77Q155.7-37.77 156.34-37.5 156.97-37.23 157.44-36.78 157.9-36.33 158.17-35.71 158.44-35.08 158.44-34.38L158.44-34.38Q158.44-33.64 158.16-33.02 157.88-32.4 157.37-31.95 156.87-31.49 156.21-31.24 155.56-30.98 154.8-30.98ZM168.18-7.15L168.18-21.66 162.98-21.66 163.41-24.44Q165.34-24.93 166.5-25.54 167.66-26.15 168.43-27.04 169.2-27.93 169.77-29.21 170.35-30.49 171.1-32.32L171.1-32.32 173.94-32.32 173.94-25.88 183.24-25.88 182.19-21.66 174.11-21.66 174.11-8.33Q174.11-7.13 174.45-6.31 174.79-5.49 175.43-4.98 176.06-4.47 176.95-4.24 177.84-4 178.97-4L178.97-4Q180.04-4 181.1-4.2 182.16-4.39 183.12-4.76L183.12-4.76 183.12-1.78Q181.46-0.66 179.56-0.09 177.67 0.49 175.74 0.49L175.74 0.49Q172.06 0.49 170.12-1.51 168.18-3.52 168.18-7.15L168.18-7.15Z" fill="#2f84ff" data-fill-palette-color="accent"></path></g></svg></g></svg></g><g transform="matrix(1,0,0,1,79.27680000000001,68.00753969923603)"><svg viewBox="0 0 112.72319999999999 10.744402393232928" height="10.744402393232928" width="112.72319999999999"><g transform="matrix(1,0,0,1,0,0)"><svg width="112.72319999999999" viewBox="2.54 -36.04 473.29999999999995 45.12" height="10.744402393232928" data-palette-color="#f4f3f0"><path d="M24.12 0L15.04 0 15.04-6.05 19.8-6.05 19.8-19.46 15.04-19.46 15.04-22.73 18.21-25.93 24.12-25.93 30.62-19.46 30.62-6.47 24.12 0ZM13.33 8.64L2.54 8.64 2.54-25.93 13.33-25.93 13.33 8.64ZM63.11 0L52.56 0 52.56-19.46 37.2-19.46 37.2-22.68 40.45-25.93 56.64-25.93 63.11-19.46 63.11 0ZM47.63 0L39.38 0 35.03-4.27 35.03-10.77 39.38-15.09 50.85-15.09 50.85-10.6 45.29-10.6 45.29-6.05 50.85-6.05 50.85-3.2 47.63 0ZM86.42 0L75 0 68.5-6.47 68.5-19.46 66.35-19.46 66.35-25.93 68.5-25.93 68.5-28.74 79.29-32.4 79.29-6.47 86.42-6.47 86.42 0ZM86.81-19.46L81-19.46 81-25.93 86.81-25.93 86.81-19.46ZM101.26 0L96.94 0 90.47-6.47 90.47-19.46 96.94-25.93 101.26-25.93 101.26 0ZM118.55-15.58L107.76-15.58 107.76-19.46 102.97-19.46 102.97-25.93 112.08-25.93 118.55-19.46 118.55-15.58ZM112.08 0L102.97 0 102.97-6.05 107.76-6.05 107.76-9.3 118.55-9.3 118.55-6.47 112.08 0ZM133.78 0L122.99 0 122.99-35.82 133.78-35.82 133.78 0ZM151.06 0L140.25 0 140.25-19.46 135.49-19.46 135.49-22.73 138.66-25.93 144.57-25.93 151.06-19.46 151.06 0ZM187.46 0L176.03 0 169.54-6.47 169.54-19.46 167.39-19.46 167.39-25.93 169.54-25.93 169.54-28.74 180.33-32.4 180.33-6.47 187.46-6.47 187.46 0ZM187.85-19.46L182.04-19.46 182.04-25.93 187.85-25.93 187.85-19.46ZM202.52 0L191.73 0 191.73-35.82 202.52-35.82 202.52 0ZM219.81 0L208.99 0 208.99-19.46 204.23-19.46 204.23-22.73 207.4-25.93 213.31-25.93 219.81-19.46 219.81 0ZM235.65-29.15L224.83-29.15 224.83-36.04 235.65-36.04 235.65-29.15ZM235.65 0L224.83 0 224.83-25.93 235.65-25.93 235.65 0ZM268.85 0L258.03 0 258.03-19.46 253.4-19.46 253.4-22.29 257.01-25.93 263.01-25.93 268.85-20.09 268.85 0ZM251.64 0L240.75 0 240.75-25.93 251.64-25.93 251.64 0ZM295.24 9.08L281.01 9.08 277.76 5.81 277.76 3.42 290.92 3.42 290.92-19.46 286.13-19.46 286.13-25.93 295.24-25.93 301.71-19.46 301.71 2.56 295.24 9.08ZM285.99 0L280.1 0 273.63-6.47 273.63-19.46 280.1-25.93 284.42-25.93 284.42-6.05 289.21-6.05 289.21-3.2 285.99 0ZM328.41 0L323.65 0 323.65-9.79 311.98-9.79 306.37-15.19 306.37-20.12 312.2-25.93 316.53-25.93 316.53-16.77 328.83-16.77 334.45-11.11 334.45-6.05 328.41 0ZM333.57-19.14L323.65-19.14 323.65-21.17 318.23-21.17 318.23-25.93 329.71-25.93 333.57-22.07 333.57-19.14ZM321.95 0L310.84 0 306.34-5.35 306.34-7.42 317.16-7.42 317.16-4.76 321.95-4.76 321.95 0ZM362.39 0L351.6 0 351.6-35.82 362.39-35.82 362.39 0ZM379.68 0L368.86 0 368.86-19.46 364.1-19.46 364.1-22.73 367.28-25.93 373.19-25.93 379.68-19.46 379.68 0ZM395.25 0L390.93 0 384.46-6.47 384.46-19.46 390.93-25.93 395.25-25.93 395.25 0ZM412.59-10.4L396.96-10.4 396.96-14.92 402.65-14.92 402.65-19.46 396.96-19.46 396.96-25.93 406.12-25.93 412.59-19.46 412.59-10.4ZM408.24 0L396.96 0 396.96-6.05 411.46-6.05 411.46-3.25 408.24 0ZM427.97 0L417.17 0 417.17-25.93 427.97-25.93 427.97 0ZM445.1-13.16L434.29-13.16 434.29-19.46 429.7-19.46 429.7-22.29 433.31-25.93 439.86-25.93 445.1-19.87 445.1-13.16ZM458.5 0L454.18 0 447.71-6.47 447.71-19.46 454.18-25.93 458.5-25.93 458.5 0ZM475.84-10.4L460.21-10.4 460.21-14.92 465.9-14.92 465.9-19.46 460.21-19.46 460.21-25.93 469.37-25.93 475.84-19.46 475.84-10.4ZM471.49 0L460.21 0 460.21-6.05 474.72-6.05 474.72-3.25 471.49 0Z" opacity="1" transform="matrix(1,0,0,1,0,0)" fill="#f4f3f0" class="slogan-text-1" data-fill-palette-color="secondary" id="text-1"></path></svg></g></svg></g></svg></g></svg></g><g transform="matrix(1,0,0,1,222.93894388203617,0)"><svg viewBox="0 0 95.52512709713929 108.83518397179212" height="108.83518397179212" width="95.52512709713929"><g><svg xmlns="http://www.w3.org/2000/svg" xmlns:xlink="http://www.w3.org/1999/xlink" version="1.1" x="0" y="0" viewBox="9.63963492950516 3.6803665458035804 78.85843385069312 89.84622597926497" enable-background="new 0 0 100 100" xml:space="preserve" height="108.83518397179212" width="95.52512709713929" class="icon-icon-0" data-fill-palette-color="accent" id="icon-0"><path d="M26.1 38c0 1.4-1.1 2.5-2.5 2.5-1.4 0-2.5-1.1-2.5-2.5 0-1.4 1.1-2.5 2.5-2.5C25 35.6 26.1 36.7 26.1 38zM52.2 19.7c-1.4 0-2.5 1.1-2.5 2.5 0 1.4 1.1 2.5 2.5 2.5 1.4 0 2.5-1.1 2.5-2.5C54.6 20.8 53.5 19.7 52.2 19.7zM69.6 32.4c-1.4 0-2.5 1.1-2.5 2.5s1.1 2.5 2.5 2.5 2.5-1.1 2.5-2.5S71 32.4 69.6 32.4zM81 14.6c-8.1-9.2-41.7-19.1-61.5 0C5 28.6 9.8 52.5 13.3 64.2c2.4 9.2 6.9 24.8 11 27.4 5.9 3.7 13.4 1.4 12.4-1.3-0.4-1.1-1.5-2.7-2.4-4.5-1-1.9 0.6-4.1 2.7-3.9 0.5 0.1 1.1 0.1 1.6 0.2 1.5 0.2 4.2 1.6 4.2 3.1l-0.1 2.4c0 2.8 1.3 4.8 4.2 4.8l7-0.1c3 0 5.1-2.1 5.1-5v-2.8c0-1.2 0.9-2.2 2.1-2.4 0.7-0.1 1.2-0.1 1.9-0.2 1.9-0.2 3.2 1.6 2.5 3.3-0.3 0.6-0.5 1.2-0.8 1.7-1.1 2.3 0.4 4.9 3.2 5.2 2.3 0.3 4.9 0.4 8.1 0 6-0.7 11-25.6 11-30.8 0 0 0 0 0 0C91 44 86.3 20.5 81 14.6zM34.8 38.3c0 4.6-3.7 8.3-8.3 8.3s-8.3-3.7-8.3-8.3 3.7-8.3 8.3-8.3S34.8 33.7 34.8 38.3zM59.8 25c0 5.7-4.6 10.3-10.3 10.3S39.2 30.7 39.2 25s4.6-10.3 10.3-10.3S59.8 19.4 59.8 25zM80.6 38c0 4.7-3.8 8.5-8.5 8.5-4.7 0-8.5-3.8-8.5-8.5s3.8-8.5 8.5-8.5C76.8 29.5 80.6 33.3 80.6 38zM28.3 60c0-6 9.5 0 21.3 0s21.3-9.4 21.3-3-9.5 14.7-21.3 14.7S28.3 66 28.3 60zM35 69.5c-1.3-7 4.4-11.9 4.5-11.9l-1-1.2c-0.3 0.2-6.5 5.5-5 13.4L35 69.5zM45.3 72.3c-1.5-1.3-0.3-8.3 1-12.9L44.8 59c-0.6 2-3.3 12.1-0.5 14.5L45.3 72.3zM53.4 57.5L52 58.3c2 5 4.3 12.9 3 14.7l1.2 1.2C58.6 70.9 54.3 59.7 53.4 57.5zM62.3 56.1l-1.4 0.8c2.4 4.1 5.3 10.6 4.2 12.2l1.3 0.9C68.5 66.9 63.3 57.8 62.3 56.1z" fill="#2f84ff" data-fill-palette-color="accent"></path></svg></g></svg></g></svg></g></svg></g></svg></g><defs></defs></svg><rect width="320" height="360" fill="none" stroke="none" visibility="hidden"></rect></g></svg></g></svg>